<svg width="213" height="215" viewBox="0 0 213 215" fill="none" xmlns="http://www.w3.org/2000/svg">
<mask id="path-1-inside-1_8_121" fill="white">
<path d="M73.9088 14.6382C74.6004 14.9472 75.4895 14.8442 75.7859 14.5352C76.1811 14.2262 75.5883 13.9172 74.5016 14.0202C73.4148 14.0202 73.1184 14.3292 73.9088 14.6382Z"/>
</mask>
<path d="M73.9088 14.6382C74.6004 14.9472 75.4895 14.8442 75.7859 14.5352C76.1811 14.2262 75.5883 13.9172 74.5016 14.0202C73.4148 14.0202 73.1184 14.3292 73.9088 14.6382Z" fill="url(#paint0_linear_8_121)"/>
<path d="M73.9088 14.6382L74.2729 13.7068L74.295 13.7155L74.3167 13.7252L73.9088 14.6382ZM75.7859 14.5352L75.0643 13.8429L75.1137 13.7914L75.17 13.7474L75.7859 14.5352ZM74.5016 14.0202L74.5959 15.0157L74.5489 15.0202H74.5016V14.0202ZM73.9088 14.6382L74.3167 13.7252C74.4897 13.8024 74.7155 13.8365 74.9213 13.8212C75.0209 13.8138 75.0917 13.7964 75.13 13.7828C75.1783 13.7656 75.1343 13.77 75.0643 13.8429L75.7859 14.5352L76.5076 15.2274C76.1037 15.6485 75.5031 15.7834 75.0698 15.8157C74.5841 15.8518 74.0195 15.7829 73.5009 15.5512L73.9088 14.6382ZM75.7859 14.5352L75.17 13.7474C75.1534 13.7603 74.8121 14.0416 74.9324 14.5431C74.983 14.7541 75.0977 14.8861 75.1673 14.9494C75.2358 15.0117 75.2902 15.0356 75.2976 15.0389C75.3106 15.0446 75.2607 15.0226 75.1212 15.0092C74.9911 14.9968 74.8144 14.995 74.5959 15.0157L74.5016 14.0202L74.4072 13.0247C75.021 12.9665 75.6398 13.0049 76.1014 13.2075C76.2933 13.2918 76.7464 13.5313 76.8772 14.0767C77.0315 14.7198 76.616 15.1555 76.4019 15.323L75.7859 14.5352ZM74.5016 14.0202V15.0202C74.2706 15.0202 74.1188 15.0371 74.0362 15.0537C73.9951 15.062 73.9913 15.0662 74.0124 15.0575C74.0243 15.0525 74.1195 15.0134 74.2229 14.9056C74.3431 14.7802 74.48 14.5495 74.4604 14.243C74.4428 13.9679 74.3081 13.7965 74.2523 13.7356C74.1579 13.6325 74.1078 13.6423 74.2729 13.7068L73.9088 14.6382L73.5447 15.5695C73.3146 15.4796 73.0052 15.3349 72.778 15.087C72.6558 14.9537 72.4863 14.7122 72.4645 14.3707C72.4407 13.9979 72.6038 13.7043 72.7796 13.5211C73.0627 13.226 73.4465 13.1322 73.6424 13.0929C73.8964 13.0419 74.1891 13.0202 74.5016 13.0202V14.0202Z" fill="url(#paint1_linear_8_121)" mask="url(#path-1-inside-1_8_121)"/>
<path d="M128.035 69.4082H140.859C147.95 69.4082 152.559 69.6966 155.783 70.6914C157.408 71.1928 158.695 71.8771 159.776 72.7998C160.855 73.7207 161.708 74.8624 162.491 76.25C163.062 77.2562 163.569 78.6274 163.933 80.0059C164.296 81.3845 164.528 82.8113 164.528 83.9316C164.528 85.0149 164.649 85.9826 164.821 86.665C164.849 86.7745 164.878 86.8741 164.906 86.9639C164.912 86.9356 164.92 86.9071 164.926 86.877C165.041 86.2474 165.145 85.2996 165.23 84.0566C165.402 81.5764 165.5 77.9772 165.5 73.5205V59.8779L163.995 60.3936H163.996C156.907 62.8681 152.387 63.2902 129.53 63.7148H129.531L104.391 64.2461L103.88 64.2568V55.459C103.88 48.3562 102.44 42.5034 99.4316 37.6338C96.423 32.7641 91.8205 28.8357 85.4238 25.626L85.416 25.6221C82.2031 23.9435 77.224 22.1554 74.3115 21.5264C72.6083 21.1903 68.7505 20.9318 63.874 20.7588C59.0149 20.5864 53.1883 20.5 47.5791 20.5C41.9693 20.5 36.582 20.5866 32.6006 20.7588C30.6083 20.845 28.9769 20.9516 27.8486 21.0791C27.4724 21.1216 27.1603 21.1675 26.9131 21.2119C26.9782 21.2385 27.0505 21.2648 27.1299 21.291C27.6736 21.4704 28.4579 21.5986 29.3525 21.5986C31.6119 21.5988 34.0793 22.6118 36.2402 24.1914C38.4067 25.7751 40.3148 27.9638 41.4395 30.3877L41.4385 30.3887C42.2692 32.1255 42.7168 34.0401 42.9639 38.8994C43.2111 43.7624 43.2607 51.6394 43.2607 65.3398V95.9688H56.0625L55.9648 61.7285V26.4541L56.4951 26.4863L61.7197 26.8057C70.7791 27.2359 77.7695 30.0576 82.4912 35.2002C87.2111 40.3408 89.5986 47.7287 89.5986 57.1582C89.5986 73.5774 81.1104 85.5516 67.6738 87.4023H67.6729C65.8989 87.6413 64.7953 87.9194 64.2617 88.1846C64.2021 88.2142 64.1547 88.2417 64.1172 88.2656C64.1199 88.2675 64.1231 88.2695 64.126 88.2715C64.3025 88.39 64.6166 88.531 65.0967 88.6787C65.569 88.824 66.1727 88.9673 66.9072 89.1045C68.3761 89.3789 70.3406 89.6235 72.7695 89.8086C78.6244 90.2364 84.884 91.5187 89.4717 93.2383L89.4746 93.2393C95.2233 95.4442 98.5132 95.9685 105.46 95.9688C109.537 95.9158 112.487 95.9749 114.232 95.8691V94.8252C113.502 94.3571 112.586 93.8565 111.528 93.3428C109.865 92.5349 107.888 91.7068 105.812 90.9229C101.919 89.4521 97.7082 88.1469 94.6221 87.4258L94.0195 87.2891L94.0127 87.2871L88.0977 85.9062L86.8936 85.625L87.9541 84.9902L91.5039 82.8652C93.5946 81.5837 96.0619 79.0655 98.1133 76.3154C100.169 73.5593 101.736 70.6651 102.112 68.6572V68.6562C102.261 67.7775 102.423 67.0531 102.659 66.5137C102.9 65.9634 103.255 65.5266 103.823 65.3633C104.354 65.2107 104.958 65.3344 105.611 65.583C106.278 65.8366 107.089 66.2575 108.077 66.8164L108.076 66.8174C111.033 68.4384 112.874 70.0269 113.931 72.8115C114.966 75.5395 115.232 79.3758 115.232 85.4199V94.291C115.496 94.4752 115.735 94.6566 115.944 94.835L115.945 94.834C116.188 95.0269 116.419 95.2493 116.529 95.5029C116.575 95.6086 116.606 95.7342 116.598 95.8701L121.656 96.1826L121.657 96.1816L128.035 96.4775V69.4082ZM115.302 95.7539C115.355 95.7435 115.404 95.7333 115.446 95.7227C115.411 95.691 115.371 95.655 115.323 95.6172L115.315 95.6113L115.309 95.6055C115.284 95.5847 115.258 95.5659 115.232 95.5449V95.7666C115.256 95.7624 115.279 95.7582 115.302 95.7539Z" fill="url(#paint2_linear_8_121)" stroke="url(#paint3_linear_8_121)"/>
<path d="M149.488 214.261H199.813L205.429 197.811V197.81C207.01 193.226 208.517 188.899 209.653 185.63C210.795 182.343 211.551 180.155 211.644 179.816L211.655 179.773L211.675 179.732C211.781 179.511 211.771 179.345 211.744 179.273C211.733 179.242 211.72 179.232 211.716 179.229H211.714C211.643 179.294 211.545 179.403 211.419 179.563C211.164 179.889 210.839 180.375 210.467 180.992C209.817 182.068 209.043 183.512 208.268 185.124L207.936 185.825L207.542 186.636C205.487 190.732 202.138 195.408 199.05 198.628C196.972 200.794 195.204 202.49 193.208 203.802C191.203 205.12 188.985 206.04 186.014 206.688C180.11 207.976 171.156 208.207 154.828 208.361H154.827L128.448 208.567L127.944 208.571V142.164H149.192C157.539 142.164 162.914 142.24 166.489 142.473C170.048 142.705 171.901 143.094 173.143 143.769L173.145 143.77C174.979 144.779 176.297 145.947 177.146 147.51C177.992 149.067 178.343 150.963 178.343 153.376C178.343 154.535 178.465 155.397 178.66 155.951C178.854 156.5 179.046 156.572 179.114 156.58C179.117 156.577 179.121 156.573 179.126 156.568C179.172 156.516 179.246 156.396 179.327 156.148C179.488 155.653 179.624 154.818 179.729 153.503C179.937 150.886 180.011 146.529 180.011 139.574C180.011 132.567 179.936 128.208 179.74 125.603C179.642 124.294 179.515 123.467 179.365 122.976C179.293 122.738 179.226 122.62 179.185 122.568C179.058 122.586 178.86 122.697 178.672 123.223C178.466 123.799 178.343 124.71 178.343 125.978C178.343 130.514 175.743 134.3 171.409 136.021H171.41C171.188 136.11 170.836 136.179 170.422 136.239C169.991 136.301 169.443 136.361 168.795 136.417C167.499 136.529 165.783 136.629 163.773 136.713C159.752 136.88 154.533 136.984 149.094 136.984H128.933V127.832C128.933 123.56 128.784 120.556 128.482 118.68C128.33 117.733 128.145 117.128 127.956 116.797C127.863 116.634 127.793 116.58 127.766 116.565C127.757 116.56 127.75 116.553 127.708 116.566H127.707C127.615 116.596 127.484 116.617 127.372 116.632C127.233 116.652 127.052 116.674 126.836 116.697C126.403 116.743 125.818 116.795 125.123 116.846C123.733 116.95 121.896 117.053 119.961 117.105L113.52 117.484L114.315 122.186C114.87 125.446 114.792 129.62 114.207 133.798C113.622 137.977 112.525 142.197 111.019 145.547L111.017 145.55C106.306 155.79 97.3878 163.092 85.6006 166.32L85.5957 166.321L85.0107 166.465C81.9503 167.172 76.9092 167.636 71.9502 167.805C66.6633 167.986 61.3732 167.834 58.5918 167.255L55.7402 166.742L55.3242 166.667L55.3291 166.244L55.625 141.524L55.916 117.415H42.9912V139.574C42.9912 145.809 42.8926 151.48 42.7441 155.594C42.6699 157.65 42.5828 159.323 42.4893 160.485C42.4427 161.064 42.3936 161.526 42.3418 161.849C42.3164 162.007 42.2879 162.153 42.252 162.266C42.2351 162.319 42.2069 162.396 42.1611 162.469C42.1388 162.505 42.0272 162.68 41.8037 162.723L41.7012 162.733C41.3524 162.733 40.9319 162.589 40.5078 162.397C40.0655 162.197 39.5511 161.911 38.9902 161.565C37.8671 160.871 36.5232 159.911 35.1436 158.829C32.3915 156.671 29.4452 153.993 27.7803 151.943C24.9649 148.536 22.1011 143.021 19.9434 137.41C17.7877 131.804 16.3037 126.019 16.3037 122.064C16.3037 121.626 16.2669 121.291 16.21 121.046C16.1518 120.795 16.0801 120.668 16.0342 120.615C16.0255 120.605 16.0174 120.599 16.0127 120.595C15.9924 120.6 15.9361 120.616 15.8457 120.689C15.6139 120.876 15.3178 121.292 15.0596 121.944C14.8065 122.583 14.6068 123.409 14.5361 124.367V124.368C14.3444 126.917 14.9224 131.337 15.9336 135.952C16.9424 140.556 18.3661 145.279 19.8262 148.425C23.628 156.556 31.5433 164.404 39.9385 168.373L39.9414 168.374C48.8692 172.669 54.0427 173.994 64.9512 174.712H64.9561C81.2708 175.941 97.7543 172.248 108.907 165.006L108.909 165.006L114.837 161.194L115.629 160.685L115.607 161.627L115.113 182.741V182.742L115.038 185.517C114.859 191.756 114.658 196.352 114.408 199.62C114.266 201.486 114.106 202.93 113.925 204.003C113.747 205.053 113.539 205.817 113.261 206.269L113.256 206.277L113.25 206.285C110.905 209.793 107.03 212.35 102.731 212.887H102.732C101.727 213.037 100.8 213.286 100.134 213.542C100.132 213.542 100.13 213.543 100.129 213.544C100.782 213.596 101.683 213.648 102.814 213.697C105.375 213.808 109.085 213.907 113.671 213.991C122.843 214.158 135.511 214.261 149.488 214.261Z" fill="url(#paint4_linear_8_121)" stroke="url(#paint5_linear_8_121)"/>
<path d="M93.0995 24.2446C93.3116 24.4214 93.657 24.3679 93.8281 24.0707L93.8437 24.0414L93.8642 24.0151C94.0582 23.7619 93.9737 23.3704 93.6992 23.1987L93.6708 23.1811L93.6445 23.1586C93.4324 22.9818 93.087 23.0362 92.916 23.3334L92.8994 23.3617L92.8788 23.3881L92.8193 23.4887C92.7089 23.7355 92.8038 24.054 93.0439 24.2045L93.0732 24.2231L93.0995 24.2446Z" fill="url(#paint6_linear_8_121)" stroke="url(#paint7_linear_8_121)"/>
<path d="M101.86 34.5166C101.874 34.4931 101.895 34.4547 101.913 34.3945C101.941 34.3003 101.961 34.1696 101.961 34.0019C101.961 33.7225 101.952 33.4949 101.937 33.3144C101.869 33.4044 101.79 33.5124 101.704 33.6425C101.514 33.9822 101.628 34.3738 101.837 34.5048C101.846 34.51 101.853 34.5132 101.86 34.5166Z" fill="url(#paint8_linear_8_121)" stroke="url(#paint9_linear_8_121)"/>
<path d="M82.9252 43.5494C82.7802 43.1608 82.6371 42.8561 82.5101 42.6305C82.5101 42.6379 82.5101 42.6454 82.5101 42.6529C82.5101 42.9936 82.6883 43.3916 82.9584 43.6568C82.9473 43.623 82.9384 43.5865 82.9252 43.5494Z" fill="url(#paint10_linear_8_121)" stroke="url(#paint11_linear_8_121)"/>
<path d="M80.5279 72.8465C80.8367 72.8465 80.9742 72.7677 81.0123 72.7352C81.0096 72.7249 81.0032 72.7095 80.9918 72.6873C80.8613 72.5086 80.7171 72.3366 80.5894 72.2137C80.5677 72.1928 80.5463 72.1751 80.5279 72.159C80.5096 72.175 80.489 72.1929 80.4674 72.2137C80.3403 72.336 80.1961 72.5065 80.066 72.6844C80.0535 72.7082 80.0463 72.7245 80.0435 72.7352C80.0811 72.7675 80.2185 72.8464 80.5279 72.8465Z" fill="url(#paint12_linear_8_121)" stroke="url(#paint13_linear_8_121)"/>
<path d="M160.079 77.4136C160.116 77.2425 160.092 77.0745 160.025 76.9273C159.988 76.8452 159.933 76.7649 159.865 76.69C159.906 76.7647 159.943 76.8404 159.972 76.9175C160.03 77.0716 160.067 77.2404 160.079 77.4136Z" fill="url(#paint14_linear_8_121)" stroke="url(#paint15_linear_8_121)"/>
<mask id="path-10-inside-2_8_121" fill="white">
<path d="M71.1425 79.8353C70.2533 80.4533 70.1545 80.8652 70.8461 80.8652C71.4389 80.8652 72.328 80.3503 72.6244 79.8353C73.4148 78.5993 73.0196 78.5993 71.1425 79.8353Z"/>
</mask>
<path d="M71.1425 79.8353C70.2533 80.4533 70.1545 80.8652 70.8461 80.8652C71.4389 80.8652 72.328 80.3503 72.6244 79.8353C73.4148 78.5993 73.0196 78.5993 71.1425 79.8353Z" fill="url(#paint16_linear_8_121)"/>
<path d="M71.1425 79.8353L70.5718 79.0141L70.5821 79.007L70.5926 79.0001L71.1425 79.8353ZM72.6244 79.8353L71.7577 79.3365L71.7694 79.3162L71.782 79.2965L72.6244 79.8353ZM71.1425 79.8353L71.7132 80.6564C71.5215 80.7896 71.4021 80.8917 71.3366 80.9582C71.2486 81.0478 71.3218 81.0074 71.3659 80.8463C71.3935 80.7459 71.4157 80.5713 71.3445 80.3696C71.2711 80.1615 71.1345 80.027 71.0215 79.9534C70.9196 79.8869 70.8383 79.8695 70.8218 79.8661C70.8009 79.8619 70.8055 79.8652 70.8461 79.8652V80.8652V81.8652C70.6223 81.8652 70.2546 81.8408 69.9297 81.6291C69.7426 81.5072 69.5566 81.3131 69.4585 81.035C69.3626 80.7633 69.3848 80.5082 69.4371 80.3177C69.5306 79.9764 69.752 79.7171 69.9109 79.5556C70.0925 79.3711 70.3188 79.1899 70.5718 79.0141L71.1425 79.8353ZM70.8461 80.8652V79.8652C70.8982 79.8652 71.0915 79.825 71.3452 79.678C71.5987 79.5312 71.7309 79.3831 71.7577 79.3365L72.6244 79.8353L73.4911 80.3341C73.2216 80.8024 72.761 81.1693 72.3476 81.4087C71.9344 81.648 71.3867 81.8652 70.8461 81.8652V80.8652ZM72.6244 79.8353L71.782 79.2965C71.8719 79.1559 71.9365 79.0459 71.9803 78.9629C72.0279 78.8728 72.0347 78.8448 72.0298 78.8617C72.0269 78.8716 72.0133 78.9198 72.01 78.9946C72.0068 79.0671 72.0112 79.2123 72.0875 79.3801C72.1725 79.5672 72.3198 79.721 72.5028 79.8141C72.6669 79.8976 72.8115 79.9083 72.8838 79.9083C73.0109 79.9083 73.0691 79.8745 73.0021 79.9002C72.9553 79.9181 72.8737 79.955 72.749 80.0217C72.5004 80.1547 72.1535 80.3669 71.6924 80.6705L71.1425 79.8353L70.5926 79.0001C71.0701 78.6857 71.4765 78.4343 71.8052 78.2584C71.9692 78.1706 72.1322 78.0916 72.2873 78.0323C72.4221 77.9807 72.6394 77.9083 72.8838 77.9083C73.1612 77.9083 73.6671 78.0221 73.9082 78.5524C74.0821 78.935 73.9864 79.2954 73.9508 79.4184C73.8615 79.7265 73.6633 80.0669 73.4669 80.374L72.6244 79.8353Z" fill="url(#paint17_linear_8_121)" mask="url(#path-10-inside-2_8_121)"/>
<path d="M105.452 148.858C105.526 148.442 105.626 147.924 105.724 147.41C105.785 147.096 105.832 146.843 105.867 146.642C105.648 146.78 105.369 146.963 105.008 147.201L105.001 147.205L104.994 147.21L104.802 147.332C104.63 147.448 104.512 147.548 104.433 147.634C104.334 147.743 104.32 147.805 104.318 147.836C104.315 147.874 104.324 147.956 104.414 148.109C104.505 148.264 104.66 148.457 104.897 148.703C105.079 148.893 105.251 149.051 105.398 149.169C105.414 149.073 105.432 148.969 105.452 148.858Z" fill="url(#paint18_linear_8_121)" stroke="url(#paint19_linear_8_121)"/>
<path d="M99.8488 154.821C99.9571 154.698 100.072 154.561 100.188 154.41C100.361 154.184 100.455 154.027 100.501 153.923C100.47 153.911 100.426 153.896 100.367 153.882C100.176 153.835 99.8965 153.8 99.5051 153.775C99.5911 153.879 99.6677 153.991 99.7258 154.112C99.8305 154.331 99.878 154.575 99.8488 154.821Z" fill="url(#paint20_linear_8_121)" stroke="url(#paint21_linear_8_121)"/>
<path d="M20.6696 160.111C20.6156 159.794 20.6836 159.477 20.8152 159.215C20.8367 159.172 20.8611 159.13 20.8864 159.089C20.6575 159.192 20.4413 159.309 20.2644 159.441L20.2536 159.449L20.2419 159.457C20.0611 159.577 19.9314 159.672 19.8405 159.747C19.9769 159.821 20.1737 159.907 20.448 160.017L20.4607 160.022L20.4724 160.028C20.5422 160.06 20.6084 160.087 20.6696 160.111Z" fill="url(#paint22_linear_8_121)" stroke="url(#paint23_linear_8_121)"/>
<path d="M174.848 160.032C174.927 160.081 175.096 160.127 175.375 160.021C175.664 159.892 175.92 159.768 176.116 159.658C175.92 159.548 175.664 159.425 175.375 159.296C175.095 159.19 174.927 159.235 174.848 159.284C174.772 159.331 174.688 159.438 174.688 159.658C174.688 159.878 174.772 159.985 174.848 160.032Z" fill="url(#paint24_linear_8_121)" stroke="url(#paint25_linear_8_121)"/>
<path d="M24.6616 165.228C24.7455 164.935 24.9453 164.686 25.2134 164.5L25.2388 164.482L25.2671 164.468C25.3773 164.41 25.4923 164.365 25.6089 164.329C25.3987 164.257 25.2021 164.2 25.0259 164.169C24.8701 164.147 24.7909 164.195 24.728 164.288C24.6448 164.412 24.5737 164.66 24.6108 165.042C24.6249 165.104 24.6424 165.166 24.6616 165.228Z" fill="url(#paint26_linear_8_121)" stroke="url(#paint27_linear_8_121)"/>
<path d="M203.036 187.173C203.345 187.173 203.482 187.094 203.521 187.062C203.518 187.052 203.511 187.036 203.5 187.014C203.37 186.835 203.225 186.663 203.098 186.54C203.076 186.519 203.055 186.502 203.036 186.486C203.018 186.502 202.997 186.52 202.976 186.54C202.849 186.663 202.704 186.833 202.574 187.011C202.562 187.035 202.555 187.051 202.552 187.062C202.589 187.094 202.727 187.173 203.036 187.173Z" fill="url(#paint28_linear_8_121)" stroke="url(#paint29_linear_8_121)"/>
<path d="M190.619 196.21C190.829 196.079 190.941 195.688 190.751 195.348C190.664 195.218 190.587 195.11 190.519 195.02C190.504 195.2 190.495 195.428 190.495 195.707C190.495 195.875 190.516 196.006 190.544 196.1C190.562 196.16 190.581 196.198 190.596 196.222C190.602 196.218 190.611 196.215 190.619 196.21Z" fill="url(#paint30_linear_8_121)" stroke="url(#paint31_linear_8_121)"/>
<path d="M191.744 199.537C191.659 199.441 191.569 199.368 191.477 199.322C191.324 199.246 191.163 199.231 191.011 199.276C190.984 199.284 190.956 199.297 190.926 199.31C191.137 199.31 191.345 199.353 191.53 199.428C191.603 199.458 191.674 199.496 191.744 199.537Z" fill="url(#paint32_linear_8_121)" stroke="url(#paint33_linear_8_121)"/>
<path d="M107.762 204.218C108.19 204.665 108.853 204.733 109.339 204.539C109.578 204.443 109.723 204.303 109.784 204.174C109.835 204.067 109.857 203.913 109.732 203.681C109.631 203.514 109.41 203.356 109.013 203.27C108.618 203.184 108.115 203.186 107.574 203.281C107.228 203.342 106.881 203.438 106.553 203.564C107.021 203.621 107.422 203.864 107.762 204.218Z" fill="url(#paint34_linear_8_121)" stroke="url(#paint35_linear_8_121)"/>
<g style="mix-blend-mode:color-dodge">
<g clip-path="url(#paint36_diamond_8_121_clip_path)" data-figma-skip-parse="true"><g transform="matrix(0 0.024 -0.043 0 43 24)"><rect x="0" y="0" width="1041.67" height="1023.26" fill="url(#paint36_diamond_8_121)" opacity="1" shape-rendering="crispEdges"/><rect x="0" y="0" width="1041.67" height="1023.26" transform="scale(1 -1)" fill="url(#paint36_diamond_8_121)" opacity="1" shape-rendering="crispEdges"/><rect x="0" y="0" width="1041.67" height="1023.26" transform="scale(-1 1)" fill="url(#paint36_diamond_8_121)" opacity="1" shape-rendering="crispEdges"/><rect x="0" y="0" width="1041.67" height="1023.26" transform="scale(-1)" fill="url(#paint36_diamond_8_121)" opacity="1" shape-rendering="crispEdges"/></g></g><ellipse cx="43" cy="24" rx="43" ry="24" data-figma-gradient-fill="{&#34;type&#34;:&#34;GRADIENT_DIAMOND&#34;,&#34;stops&#34;:[{&#34;color&#34;:{&#34;r&#34;:1.0,&#34;g&#34;:1.0,&#34;b&#34;:1.0,&#34;a&#34;:1.0},&#34;position&#34;:0.0},{&#34;color&#34;:{&#34;r&#34;:0.0,&#34;g&#34;:0.0,&#34;b&#34;:0.0,&#34;a&#34;:0.0},&#34;position&#34;:1.0}],&#34;stopsVar&#34;:[{&#34;color&#34;:{&#34;r&#34;:1.0,&#34;g&#34;:1.0,&#34;b&#34;:1.0,&#34;a&#34;:1.0},&#34;position&#34;:0.0},{&#34;color&#34;:{&#34;r&#34;:0.0,&#34;g&#34;:0.0,&#34;b&#34;:0.0,&#34;a&#34;:0.0},&#34;position&#34;:1.0}],&#34;transform&#34;:{&#34;m00&#34;:5.2659813867068830e-15,&#34;m01&#34;:-86.0,&#34;m02&#34;:86.0,&#34;m10&#34;:48.0,&#34;m11&#34;:2.9391524462044029e-15,&#34;m12&#34;:-2.9391524462044029e-15},&#34;opacity&#34;:1.0,&#34;blendMode&#34;:&#34;NORMAL&#34;,&#34;visible&#34;:true}"/>
</g>
<g style="mix-blend-mode:color-dodge">
<g clip-path="url(#paint37_diamond_8_121_clip_path)" data-figma-skip-parse="true"><g transform="matrix(0 0.021 -0.0255 0 115.5 65)"><rect x="0" y="0" width="1047.62" height="1039.22" fill="url(#paint37_diamond_8_121)" opacity="1" shape-rendering="crispEdges"/><rect x="0" y="0" width="1047.62" height="1039.22" transform="scale(1 -1)" fill="url(#paint37_diamond_8_121)" opacity="1" shape-rendering="crispEdges"/><rect x="0" y="0" width="1047.62" height="1039.22" transform="scale(-1 1)" fill="url(#paint37_diamond_8_121)" opacity="1" shape-rendering="crispEdges"/><rect x="0" y="0" width="1047.62" height="1039.22" transform="scale(-1)" fill="url(#paint37_diamond_8_121)" opacity="1" shape-rendering="crispEdges"/></g></g><ellipse cx="115.5" cy="65" rx="25.5" ry="21" data-figma-gradient-fill="{&#34;type&#34;:&#34;GRADIENT_DIAMOND&#34;,&#34;stops&#34;:[{&#34;color&#34;:{&#34;r&#34;:1.0,&#34;g&#34;:1.0,&#34;b&#34;:1.0,&#34;a&#34;:1.0},&#34;position&#34;:0.0},{&#34;color&#34;:{&#34;r&#34;:0.0,&#34;g&#34;:0.0,&#34;b&#34;:0.0,&#34;a&#34;:0.0},&#34;position&#34;:1.0}],&#34;stopsVar&#34;:[{&#34;color&#34;:{&#34;r&#34;:1.0,&#34;g&#34;:1.0,&#34;b&#34;:1.0,&#34;a&#34;:1.0},&#34;position&#34;:0.0},{&#34;color&#34;:{&#34;r&#34;:0.0,&#34;g&#34;:0.0,&#34;b&#34;:0.0,&#34;a&#34;:0.0},&#34;position&#34;:1.0}],&#34;transform&#34;:{&#34;m00&#34;:3.1228495402666270e-15,&#34;m01&#34;:-51.0,&#34;m02&#34;:141.0,&#34;m10&#34;:42.0,&#34;m11&#34;:2.5717584698381913e-15,&#34;m12&#34;:44.000015258789062},&#34;opacity&#34;:1.0,&#34;blendMode&#34;:&#34;NORMAL&#34;,&#34;visible&#34;:true}"/>
</g>
<g style="mix-blend-mode:color-dodge">
<g clip-path="url(#paint38_diamond_8_121_clip_path)" data-figma-skip-parse="true"><g transform="matrix(0 0.024 -0.027 0 49 119)"><rect x="0" y="0" width="1041.67" height="1037.04" fill="url(#paint38_diamond_8_121)" opacity="1" shape-rendering="crispEdges"/><rect x="0" y="0" width="1041.67" height="1037.04" transform="scale(1 -1)" fill="url(#paint38_diamond_8_121)" opacity="1" shape-rendering="crispEdges"/><rect x="0" y="0" width="1041.67" height="1037.04" transform="scale(-1 1)" fill="url(#paint38_diamond_8_121)" opacity="1" shape-rendering="crispEdges"/><rect x="0" y="0" width="1041.67" height="1037.04" transform="scale(-1)" fill="url(#paint38_diamond_8_121)" opacity="1" shape-rendering="crispEdges"/></g></g><ellipse cx="49" cy="119" rx="27" ry="24" data-figma-gradient-fill="{&#34;type&#34;:&#34;GRADIENT_DIAMOND&#34;,&#34;stops&#34;:[{&#34;color&#34;:{&#34;r&#34;:1.0,&#34;g&#34;:1.0,&#34;b&#34;:1.0,&#34;a&#34;:1.0},&#34;position&#34;:0.0},{&#34;color&#34;:{&#34;r&#34;:0.0,&#34;g&#34;:0.0,&#34;b&#34;:0.0,&#34;a&#34;:0.0},&#34;position&#34;:1.0}],&#34;stopsVar&#34;:[{&#34;color&#34;:{&#34;r&#34;:1.0,&#34;g&#34;:1.0,&#34;b&#34;:1.0,&#34;a&#34;:1.0},&#34;position&#34;:0.0},{&#34;color&#34;:{&#34;r&#34;:0.0,&#34;g&#34;:0.0,&#34;b&#34;:0.0,&#34;a&#34;:0.0},&#34;position&#34;:1.0}],&#34;transform&#34;:{&#34;m00&#34;:3.3065464225706144e-15,&#34;m01&#34;:-54.0,&#34;m02&#34;:76.0,&#34;m10&#34;:48.0,&#34;m11&#34;:2.9391524462044029e-15,&#34;m12&#34;:95.000015258789062},&#34;opacity&#34;:1.0,&#34;blendMode&#34;:&#34;NORMAL&#34;,&#34;visible&#34;:true}"/>
</g>
<mask id="path-24-outside-3_8_121" maskUnits="userSpaceOnUse" x="41" y="101" width="123" height="11" fill="black">
<rect fill="white" x="41" y="101" width="123" height="11"/>
<path d="M44.612 102.432C45.324 102.432 45.92 102.5 46.4 102.636C46.888 102.772 47.252 102.996 47.492 103.308C47.74 103.62 47.864 104.036 47.864 104.556C47.864 104.892 47.8 105.192 47.672 105.456C47.552 105.712 47.368 105.928 47.12 106.104C46.88 106.272 46.584 106.388 46.232 106.452V106.512C46.592 106.568 46.916 106.672 47.204 106.824C47.5 106.976 47.732 107.192 47.9 107.472C48.068 107.752 48.152 108.116 48.152 108.564C48.152 109.084 48.032 109.528 47.792 109.896C47.552 110.256 47.208 110.532 46.76 110.724C46.32 110.908 45.792 111 45.176 111H42.164V102.432H44.612ZM44.828 106.08C45.564 106.08 46.068 105.964 46.34 105.732C46.612 105.492 46.748 105.14 46.748 104.676C46.748 104.204 46.58 103.868 46.244 103.668C45.916 103.46 45.388 103.356 44.66 103.356H43.244V106.08H44.828ZM43.244 106.98V110.088H44.972C45.732 110.088 46.26 109.94 46.556 109.644C46.852 109.348 47 108.96 47 108.48C47 108.176 46.932 107.912 46.796 107.688C46.668 107.464 46.448 107.292 46.136 107.172C45.832 107.044 45.416 106.98 44.888 106.98H43.244ZM57.0007 111H55.9207V103.38H53.2447V102.432H59.6647V103.38H57.0007V111ZM77.5018 111H72.7138V102.432H77.5018V103.38H73.7938V106.056H77.2858V106.992H73.7938V110.052H77.5018V111ZM89.5218 111H88.2978L86.0298 107.28L83.7258 111H82.5858L85.4298 106.536L82.7658 102.432H83.9658L86.0658 105.792L88.1778 102.432H89.3178L86.6658 106.512L89.5218 111ZM98.4907 103.26C98.0347 103.26 97.6227 103.34 97.2547 103.5C96.8867 103.652 96.5747 103.88 96.3187 104.184C96.0627 104.48 95.8667 104.844 95.7307 105.276C95.5947 105.7 95.5267 106.18 95.5267 106.716C95.5267 107.42 95.6347 108.032 95.8507 108.552C96.0747 109.072 96.4027 109.472 96.8347 109.752C97.2747 110.032 97.8227 110.172 98.4787 110.172C98.8547 110.172 99.2107 110.14 99.5467 110.076C99.8827 110.012 100.211 109.932 100.531 109.836V110.772C100.211 110.892 99.8787 110.98 99.5347 111.036C99.1987 111.092 98.7947 111.12 98.3227 111.12C97.4507 111.12 96.7227 110.94 96.1387 110.58C95.5547 110.22 95.1147 109.708 94.8187 109.044C94.5307 108.38 94.3867 107.6 94.3867 106.704C94.3867 106.056 94.4747 105.464 94.6507 104.928C94.8347 104.392 95.0987 103.928 95.4427 103.536C95.7947 103.144 96.2267 102.844 96.7387 102.636C97.2507 102.42 97.8387 102.312 98.5027 102.312C98.9427 102.312 99.3667 102.356 99.7747 102.444C100.183 102.532 100.547 102.656 100.867 102.816L100.435 103.728C100.171 103.608 99.8747 103.5 99.5467 103.404C99.2267 103.308 98.8747 103.26 98.4907 103.26ZM113.273 111H112.193V107.004H107.801V111H106.721V102.432H107.801V106.056H112.193V102.432H113.273V111ZM125.311 111L124.279 108.348H120.883L119.863 111H118.771L122.119 102.396H123.091L126.427 111H125.311ZM122.995 104.796C122.971 104.732 122.931 104.616 122.875 104.448C122.819 104.28 122.763 104.108 122.707 103.932C122.659 103.748 122.619 103.608 122.587 103.512C122.547 103.672 122.503 103.836 122.455 104.004C122.415 104.164 122.371 104.312 122.323 104.448C122.283 104.584 122.247 104.7 122.215 104.796L121.243 107.388H123.955L122.995 104.796ZM138.711 111H137.451L132.867 103.884H132.819C132.827 104.028 132.835 104.188 132.843 104.364C132.859 104.54 132.871 104.732 132.879 104.94C132.887 105.14 132.895 105.348 132.903 105.564C132.911 105.78 132.915 105.996 132.915 106.212V111H131.919V102.432H133.167L137.739 109.524H137.787C137.779 109.428 137.771 109.296 137.763 109.128C137.755 108.952 137.747 108.76 137.739 108.552C137.731 108.336 137.723 108.116 137.715 107.892C137.707 107.668 137.703 107.46 137.703 107.268V102.432H138.711V111ZM149.077 106.476H152.041V110.676C151.577 110.828 151.109 110.94 150.637 111.012C150.165 111.084 149.629 111.12 149.029 111.12C148.141 111.12 147.393 110.944 146.785 110.592C146.177 110.232 145.713 109.724 145.393 109.068C145.081 108.404 144.925 107.62 144.925 106.716C144.925 105.82 145.101 105.044 145.453 104.388C145.805 103.732 146.309 103.224 146.965 102.864C147.629 102.496 148.429 102.312 149.365 102.312C149.845 102.312 150.297 102.356 150.721 102.444C151.153 102.532 151.553 102.656 151.921 102.816L151.513 103.752C151.209 103.616 150.865 103.5 150.481 103.404C150.105 103.308 149.713 103.26 149.305 103.26C148.625 103.26 148.041 103.4 147.553 103.68C147.065 103.96 146.693 104.36 146.437 104.88C146.181 105.392 146.053 106.004 146.053 106.716C146.053 107.396 146.161 108 146.377 108.528C146.601 109.048 146.949 109.456 147.421 109.752C147.893 110.04 148.513 110.184 149.281 110.184C149.537 110.184 149.761 110.176 149.953 110.16C150.153 110.136 150.333 110.108 150.493 110.076C150.661 110.044 150.817 110.012 150.961 109.98V107.436H149.077V106.476ZM163.195 111H158.407V102.432H163.195V103.38H159.487V106.056H162.979V106.992H159.487V110.052H163.195V111Z"/>
</mask>
<path d="M44.612 102.432C45.324 102.432 45.92 102.5 46.4 102.636C46.888 102.772 47.252 102.996 47.492 103.308C47.74 103.62 47.864 104.036 47.864 104.556C47.864 104.892 47.8 105.192 47.672 105.456C47.552 105.712 47.368 105.928 47.12 106.104C46.88 106.272 46.584 106.388 46.232 106.452V106.512C46.592 106.568 46.916 106.672 47.204 106.824C47.5 106.976 47.732 107.192 47.9 107.472C48.068 107.752 48.152 108.116 48.152 108.564C48.152 109.084 48.032 109.528 47.792 109.896C47.552 110.256 47.208 110.532 46.76 110.724C46.32 110.908 45.792 111 45.176 111H42.164V102.432H44.612ZM44.828 106.08C45.564 106.08 46.068 105.964 46.34 105.732C46.612 105.492 46.748 105.14 46.748 104.676C46.748 104.204 46.58 103.868 46.244 103.668C45.916 103.46 45.388 103.356 44.66 103.356H43.244V106.08H44.828ZM43.244 106.98V110.088H44.972C45.732 110.088 46.26 109.94 46.556 109.644C46.852 109.348 47 108.96 47 108.48C47 108.176 46.932 107.912 46.796 107.688C46.668 107.464 46.448 107.292 46.136 107.172C45.832 107.044 45.416 106.98 44.888 106.98H43.244ZM57.0007 111H55.9207V103.38H53.2447V102.432H59.6647V103.38H57.0007V111ZM77.5018 111H72.7138V102.432H77.5018V103.38H73.7938V106.056H77.2858V106.992H73.7938V110.052H77.5018V111ZM89.5218 111H88.2978L86.0298 107.28L83.7258 111H82.5858L85.4298 106.536L82.7658 102.432H83.9658L86.0658 105.792L88.1778 102.432H89.3178L86.6658 106.512L89.5218 111ZM98.4907 103.26C98.0347 103.26 97.6227 103.34 97.2547 103.5C96.8867 103.652 96.5747 103.88 96.3187 104.184C96.0627 104.48 95.8667 104.844 95.7307 105.276C95.5947 105.7 95.5267 106.18 95.5267 106.716C95.5267 107.42 95.6347 108.032 95.8507 108.552C96.0747 109.072 96.4027 109.472 96.8347 109.752C97.2747 110.032 97.8227 110.172 98.4787 110.172C98.8547 110.172 99.2107 110.14 99.5467 110.076C99.8827 110.012 100.211 109.932 100.531 109.836V110.772C100.211 110.892 99.8787 110.98 99.5347 111.036C99.1987 111.092 98.7947 111.12 98.3227 111.12C97.4507 111.12 96.7227 110.94 96.1387 110.58C95.5547 110.22 95.1147 109.708 94.8187 109.044C94.5307 108.38 94.3867 107.6 94.3867 106.704C94.3867 106.056 94.4747 105.464 94.6507 104.928C94.8347 104.392 95.0987 103.928 95.4427 103.536C95.7947 103.144 96.2267 102.844 96.7387 102.636C97.2507 102.42 97.8387 102.312 98.5027 102.312C98.9427 102.312 99.3667 102.356 99.7747 102.444C100.183 102.532 100.547 102.656 100.867 102.816L100.435 103.728C100.171 103.608 99.8747 103.5 99.5467 103.404C99.2267 103.308 98.8747 103.26 98.4907 103.26ZM113.273 111H112.193V107.004H107.801V111H106.721V102.432H107.801V106.056H112.193V102.432H113.273V111ZM125.311 111L124.279 108.348H120.883L119.863 111H118.771L122.119 102.396H123.091L126.427 111H125.311ZM122.995 104.796C122.971 104.732 122.931 104.616 122.875 104.448C122.819 104.28 122.763 104.108 122.707 103.932C122.659 103.748 122.619 103.608 122.587 103.512C122.547 103.672 122.503 103.836 122.455 104.004C122.415 104.164 122.371 104.312 122.323 104.448C122.283 104.584 122.247 104.7 122.215 104.796L121.243 107.388H123.955L122.995 104.796ZM138.711 111H137.451L132.867 103.884H132.819C132.827 104.028 132.835 104.188 132.843 104.364C132.859 104.54 132.871 104.732 132.879 104.94C132.887 105.14 132.895 105.348 132.903 105.564C132.911 105.78 132.915 105.996 132.915 106.212V111H131.919V102.432H133.167L137.739 109.524H137.787C137.779 109.428 137.771 109.296 137.763 109.128C137.755 108.952 137.747 108.76 137.739 108.552C137.731 108.336 137.723 108.116 137.715 107.892C137.707 107.668 137.703 107.46 137.703 107.268V102.432H138.711V111ZM149.077 106.476H152.041V110.676C151.577 110.828 151.109 110.94 150.637 111.012C150.165 111.084 149.629 111.12 149.029 111.12C148.141 111.12 147.393 110.944 146.785 110.592C146.177 110.232 145.713 109.724 145.393 109.068C145.081 108.404 144.925 107.62 144.925 106.716C144.925 105.82 145.101 105.044 145.453 104.388C145.805 103.732 146.309 103.224 146.965 102.864C147.629 102.496 148.429 102.312 149.365 102.312C149.845 102.312 150.297 102.356 150.721 102.444C151.153 102.532 151.553 102.656 151.921 102.816L151.513 103.752C151.209 103.616 150.865 103.5 150.481 103.404C150.105 103.308 149.713 103.26 149.305 103.26C148.625 103.26 148.041 103.4 147.553 103.68C147.065 103.96 146.693 104.36 146.437 104.88C146.181 105.392 146.053 106.004 146.053 106.716C146.053 107.396 146.161 108 146.377 108.528C146.601 109.048 146.949 109.456 147.421 109.752C147.893 110.04 148.513 110.184 149.281 110.184C149.537 110.184 149.761 110.176 149.953 110.16C150.153 110.136 150.333 110.108 150.493 110.076C150.661 110.044 150.817 110.012 150.961 109.98V107.436H149.077V106.476ZM163.195 111H158.407V102.432H163.195V103.38H159.487V106.056H162.979V106.992H159.487V110.052H163.195V111Z" fill="url(#paint39_linear_8_121)"/>
<path d="M44.612 102.245C44.612 102.37 44.612 102.495 44.612 102.62C45.083 102.641 45.5513 102.689 45.9957 102.794C46.109 102.821 46.2204 102.852 46.3288 102.887C46.711 103.009 47.0496 103.21 47.2478 103.496C47.4581 103.782 47.5274 104.161 47.5134 104.556C47.5045 104.825 47.4466 105.077 47.3326 105.291C47.2306 105.491 47.0804 105.651 46.8888 105.778C46.685 105.912 46.4307 105.994 46.1565 106.037L45.818 106.091L45.8102 106.452C45.8097 106.472 45.8093 106.492 45.8089 106.512L45.8013 106.865L46.167 106.93C46.4657 106.984 46.7476 107.077 46.9969 107.216C47.2192 107.337 47.3865 107.5 47.5055 107.709C47.6315 107.927 47.6816 108.237 47.6763 108.564C47.6715 108.966 47.5793 109.335 47.3818 109.628C47.1921 109.908 46.9092 110.121 46.564 110.267C46.2453 110.398 45.8776 110.467 45.4968 110.49C45.3909 110.497 45.2839 110.5 45.176 110.5C44.172 110.501 43.168 110.507 42.164 110.517L42.6469 111C42.6179 108.144 42.5518 105.288 42.4488 102.432L42.164 102.717C42.5007 102.705 42.8373 102.692 43.174 102.679C43.6533 102.66 44.1327 102.64 44.612 102.62C44.612 102.495 44.612 102.37 44.612 102.245C44.1327 102.224 43.6533 102.204 43.174 102.185C42.8373 102.172 42.5007 102.159 42.164 102.147L41.8693 102.158L41.8792 102.432C41.7762 105.288 41.7101 108.144 41.6811 111L41.6861 111.488L42.164 111.483C43.168 111.493 44.172 111.499 45.176 111.5C45.3029 111.5 45.4304 111.496 45.5586 111.488C46.0193 111.46 46.4944 111.376 46.952 111.183C47.4331 110.979 47.8977 110.634 48.1995 110.168C48.5204 109.674 48.6356 109.092 48.6277 108.564C48.6212 108.14 48.559 107.671 48.2945 107.235C48.0856 106.891 47.7619 106.602 47.4067 106.429C47.0554 106.251 46.6735 106.145 46.297 106.094L46.6551 106.512C46.6547 106.492 46.6543 106.472 46.6538 106.452L46.3075 106.867C46.6624 106.795 47.0287 106.665 47.3491 106.431C47.6285 106.227 47.8715 105.942 48.0135 105.616C48.1691 105.278 48.2246 104.905 48.2146 104.556C48.2027 104.072 48.085 103.532 47.7332 103.116C47.4016 102.708 46.9222 102.493 46.4701 102.385C46.3442 102.354 46.2171 102.329 46.0901 102.309C45.5925 102.232 45.0994 102.224 44.612 102.245ZM44.612 102.62V102.245V102.62ZM44.828 105.58C44.828 105.913 44.828 106.247 44.828 106.58C45.0296 106.58 45.2347 106.572 45.4449 106.55C45.821 106.499 46.2322 106.456 46.6645 106.112C47.1131 105.727 47.2548 105.133 47.248 104.676C47.2711 104.204 47.0277 103.521 46.4997 103.238L46.5118 103.246C45.8419 102.86 45.2403 102.871 44.66 102.856C44.188 102.856 43.716 102.856 43.244 102.856H42.744V103.356C42.744 104.264 42.744 105.172 42.744 106.08V106.58H43.244C43.5838 106.58 43.9237 106.58 44.2635 106.58C44.4517 106.58 44.6398 106.58 44.828 106.58C44.828 106.247 44.828 105.913 44.828 105.58C44.6398 105.58 44.4517 105.58 44.2635 105.58C43.9237 105.58 43.5838 105.58 43.244 105.58L43.744 106.08C43.744 105.172 43.744 104.264 43.744 103.356L43.244 103.856C43.716 103.856 44.188 103.856 44.66 103.856C45.1583 103.855 45.6975 103.914 45.9762 104.09L45.9883 104.098C46.1689 104.207 46.244 104.367 46.248 104.676C46.2484 104.99 46.1684 105.22 46.0092 105.357C45.9173 105.443 45.628 105.528 45.3383 105.556C45.1749 105.573 45.0027 105.58 44.828 105.58ZM44.828 106.58V105.58V106.58ZM43.744 106.98C43.4107 106.98 43.0773 106.98 42.744 106.98C42.744 107.187 42.744 107.393 42.744 107.6C42.744 108.429 42.744 109.259 42.744 110.088V110.588H43.244C43.82 110.588 44.396 110.588 44.972 110.588C45.5704 110.567 46.2624 110.581 46.9096 109.998C47.3237 109.599 47.5098 108.99 47.5 108.48C47.5016 108.139 47.4248 107.757 47.2234 107.429L47.2301 107.44C47.0093 107.052 46.6398 106.829 46.3155 106.705L46.33 106.711C45.8156 106.505 45.3442 106.485 44.888 106.48C44.5466 106.48 44.2053 106.48 43.8639 106.48C43.6573 106.48 43.4506 106.48 43.244 106.48C43.244 106.813 43.244 107.147 43.244 107.48C43.4506 107.48 43.6573 107.48 43.8639 107.48C44.2053 107.48 44.5466 107.48 44.888 107.48C45.2755 107.48 45.6685 107.518 45.942 107.633L45.9565 107.639C46.1606 107.716 46.2993 107.823 46.3619 107.936L46.3686 107.948C46.4567 108.092 46.5001 108.27 46.5 108.48C46.5001 108.819 46.406 109.088 46.2024 109.29C46.0105 109.497 45.4754 109.593 44.972 109.588C44.396 109.588 43.82 109.588 43.244 109.588L43.744 110.088C43.744 109.259 43.744 108.429 43.744 107.6C43.744 107.393 43.744 107.187 43.744 106.98ZM42.744 106.98H43.744L43.244 107.48V106.48H42.744V106.98ZM57.0007 111.188C57.0007 111.063 57.0007 110.938 57.0007 110.813C56.6407 110.798 56.2807 110.783 55.9207 110.769L56.1516 111C56.157 110.86 56.1623 110.721 56.1676 110.581C56.2576 108.181 56.3237 105.78 56.3657 103.38L56.3733 102.943L55.9207 102.935C55.0287 102.919 54.1367 102.907 53.2447 102.898L53.7265 103.38C53.7297 103.064 53.7325 102.748 53.7348 102.432L53.2447 102.922C54.1327 102.929 55.0207 102.932 55.9087 102.932C57.1607 102.932 58.4127 102.925 59.6647 102.912L59.1843 102.432C59.1876 102.748 59.1913 103.064 59.1955 103.38L59.6647 102.911C58.7767 102.922 57.8887 102.937 57.0007 102.956L56.5851 102.947L56.5762 103.38C56.618 105.42 56.6772 107.461 56.7538 109.501C56.7726 110.001 56.7924 110.5 56.8132 111C56.9382 111 57.0632 111 57.1882 111C57.209 110.5 57.2288 110.001 57.2476 109.501C57.3241 107.461 57.3833 105.42 57.4252 103.38L57.0007 103.804C57.8887 103.823 58.7767 103.838 59.6647 103.849L60.14 103.843L60.1339 103.38C60.138 103.064 60.1418 102.748 60.1451 102.432L60.14 101.947L59.6647 101.952C58.4127 101.939 57.1607 101.932 55.9087 101.932C55.0207 101.932 54.1327 101.935 53.2447 101.942L52.751 101.946L52.7546 102.432C52.7569 102.748 52.7597 103.064 52.7628 103.38L52.7677 103.867L53.2447 103.862C54.1367 103.853 55.0287 103.841 55.9207 103.825L55.4757 103.38C55.5177 105.78 55.5837 108.181 55.6738 110.581C55.6791 110.721 55.6844 110.86 55.6898 111L55.699 111.24L55.9207 111.231C56.2807 111.217 56.6407 111.203 57.0007 111.188ZM57.0007 110.813V111.188L57.1957 111.179L57.1882 111H56.8132L57.0007 110.813ZM77.5018 111.188C77.5018 111.063 77.5018 110.938 77.5018 110.813C76.8166 110.792 76.1314 110.772 75.4462 110.753C74.5354 110.728 73.6246 110.705 72.7138 110.684L73.03 111C73.0966 108.144 73.1451 105.288 73.1755 102.432L72.7138 102.894C74.3098 102.911 75.9058 102.922 77.5018 102.928L77.0061 102.432C77.005 102.748 77.0041 103.064 77.0034 103.38L77.5018 102.882C77.0138 102.881 76.5258 102.88 76.0378 102.88C75.2898 102.88 74.5418 102.881 73.7938 102.884L73.2992 102.882L73.2976 103.38C73.3005 104.272 73.3053 105.164 73.3117 106.056L73.3083 106.535L73.7938 106.538C74.9578 106.53 76.1218 106.518 77.2858 106.504L76.8382 106.056C76.8421 106.368 76.8462 106.68 76.8505 106.992L77.2858 106.557C76.1218 106.573 74.9578 106.592 73.7938 106.614L73.4231 106.607L73.4158 106.992C73.4351 108.012 73.4568 109.032 73.4808 110.052L73.4736 110.358L73.7938 110.365C74.6606 110.345 75.5274 110.323 76.3942 110.299C76.7634 110.289 77.1326 110.278 77.5018 110.268L77.2862 110.052C77.2953 110.368 77.3047 110.684 77.3143 111C77.4393 111 77.5643 111 77.6893 111C77.699 110.684 77.7083 110.368 77.7175 110.052L77.7111 109.83L77.5018 109.836C77.1326 109.826 76.7634 109.815 76.3942 109.805C75.5274 109.781 74.6606 109.759 73.7938 109.739L74.1069 110.052C74.1309 109.032 74.1525 108.012 74.1719 106.992L73.7938 107.37C74.9578 107.392 76.1218 107.411 77.2858 107.427L77.7272 107.421L77.7212 106.992C77.7255 106.68 77.7296 106.368 77.7335 106.056L77.7279 105.603L77.2858 105.608C76.1218 105.594 74.9578 105.582 73.7938 105.574L74.2759 106.056C74.2824 105.164 74.2872 104.272 74.2901 103.38L73.7938 103.876C74.5418 103.879 75.2898 103.88 76.0378 103.88C76.5258 103.88 77.0138 103.879 77.5018 103.878L78.0013 103.877L78.0003 103.38C77.9996 103.064 77.9987 102.748 77.9975 102.432L77.9958 101.935L77.5018 101.936C75.9058 101.942 74.3098 101.953 72.7138 101.97L72.2473 101.975L72.2522 102.432C72.2826 105.288 72.3311 108.144 72.3977 111L72.4053 111.323L72.7138 111.316C73.6246 111.295 74.5354 111.272 75.4462 111.247C76.1314 111.228 76.8166 111.208 77.5018 111.188ZM77.5018 110.813V111.188L77.6949 111.182L77.6893 111H77.3143L77.5018 110.813ZM89.5218 111.188C89.5218 111.063 89.5218 110.938 89.5218 110.813C89.1138 110.8 88.7058 110.788 88.2978 110.777L88.4883 110.884C88.3455 110.634 88.2025 110.384 88.0594 110.135C87.4799 109.124 86.898 108.115 86.3135 107.107L86.0447 106.646L85.7473 107.105C84.9521 108.328 84.1608 109.554 83.3734 110.782L83.7258 110.585C83.3458 110.58 82.9658 110.574 82.5858 110.569L82.9497 111.232C83.9186 109.757 84.8818 108.279 85.8394 106.797L86.0071 106.537L85.8371 106.272C85.0321 105.014 84.223 103.759 83.41 102.506C83.335 102.391 83.2601 102.275 83.1851 102.16L82.7658 102.932C83.1658 102.932 83.5658 102.931 83.9658 102.93L83.5434 102.696C84.246 103.814 84.9518 104.931 85.6607 106.045L86.0581 106.691L86.4702 106.046C87.1653 104.921 87.8571 103.793 88.5458 102.663L88.1778 102.867C88.5578 102.861 88.9378 102.856 89.3178 102.85L88.9673 102.204C88.1041 103.578 87.2457 104.954 86.3921 106.334L86.2778 106.501L86.3904 106.687C86.9892 107.584 87.5901 108.478 88.1931 109.372C88.5824 109.949 88.9726 110.525 89.3636 111.101C89.4691 111.034 89.5745 110.966 89.68 110.899C89.3241 110.301 88.9673 109.704 88.6097 109.107C88.0556 108.182 87.4995 107.259 86.9413 106.337L86.9396 106.69C87.8539 105.35 88.7635 104.006 89.6684 102.66L90.0827 102.004L89.3178 102.014C88.9378 102.008 88.5578 102.003 88.1778 101.997L87.9317 102.001L87.8098 102.201C87.0905 103.311 86.3743 104.423 85.6614 105.538L86.4709 105.539C85.7799 104.413 85.0856 103.29 84.3882 102.168L84.2407 101.933L83.9658 101.934C83.5658 101.933 83.1658 101.932 82.7658 101.932L81.8451 101.933L82.3465 102.704C82.4214 102.82 82.4963 102.935 82.5712 103.051C83.3843 104.303 84.2014 105.553 85.0225 106.8L85.0203 106.275C84.0818 107.769 83.149 109.267 82.2219 110.768L81.8046 111.441L82.5858 111.431C82.9658 111.426 83.3458 111.421 83.7258 111.415L83.9631 111.411L84.0782 111.218C84.8268 109.966 85.5715 108.712 86.3123 107.455L85.7461 107.453C86.3742 108.434 87.0047 109.414 87.6378 110.392C87.7942 110.633 87.9507 110.875 88.1073 111.116L88.1789 111.226L88.2978 111.223C88.7058 111.212 89.1138 111.2 89.5218 111.188ZM89.5218 110.813V111.188L89.8668 111.177L89.68 110.899L89.3636 111.101L89.5218 110.813ZM98.4907 103.448C98.4907 103.323 98.4907 103.198 98.4907 103.073C98.0486 103.057 97.5902 103.116 97.1623 103.288C97.0093 103.345 96.8563 103.419 96.7114 103.508C96.4888 103.644 96.2861 103.815 96.1126 104.01C95.8028 104.348 95.5835 104.76 95.4383 105.184C95.2644 105.682 95.1934 106.203 95.1809 106.716C95.1657 107.371 95.2366 108.052 95.4907 108.702C95.7095 109.248 96.0916 109.766 96.6057 110.105C97.1797 110.484 97.8542 110.614 98.4787 110.621C98.8608 110.626 99.2482 110.6 99.6334 110.531C99.9811 110.469 100.326 110.39 100.667 110.291L100.056 109.836C100.052 110.148 100.05 110.46 100.047 110.772L100.361 110.319C100.068 110.426 99.765 110.503 99.4558 110.551C99.0963 110.608 98.7106 110.624 98.3227 110.623C97.7984 110.621 97.286 110.549 96.8327 110.37C96.6813 110.31 96.5368 110.238 96.4009 110.155C95.8997 109.85 95.5162 109.394 95.2688 108.843C94.9837 108.198 94.8685 107.457 94.8603 106.704C94.8539 106.143 94.9178 105.588 95.0795 105.069C95.2281 104.611 95.4545 104.181 95.7626 103.817C96.0624 103.467 96.4483 103.191 96.8873 103.002C97.3811 102.779 97.9361 102.68 98.5027 102.666C98.9069 102.655 99.3109 102.684 99.7072 102.757C100.066 102.824 100.415 102.924 100.738 103.073L100.607 102.693C100.472 103.001 100.338 103.31 100.203 103.618L100.541 103.495C100.448 103.456 100.356 103.42 100.262 103.387C100.047 103.31 99.8288 103.244 99.6099 103.188C99.2407 103.09 98.8614 103.06 98.4907 103.073C98.4907 103.198 98.4907 103.323 98.4907 103.448C98.8326 103.46 99.1692 103.513 99.4821 103.619C99.6871 103.687 99.8871 103.762 100.081 103.846C100.165 103.883 100.248 103.921 100.329 103.961L100.569 104.061L100.666 103.838C100.82 103.538 100.973 103.239 101.126 102.939L101.242 102.674L100.995 102.559C100.628 102.363 100.237 102.227 99.8422 102.131C99.4034 102.024 98.9526 101.969 98.5027 101.958C97.8676 101.943 97.2075 102.023 96.5852 102.272C96.0454 102.477 95.5304 102.812 95.126 103.252C94.72 103.698 94.4205 104.229 94.2238 104.781C94.0079 105.411 93.9192 106.064 93.913 106.704C93.9051 107.546 94.0166 108.42 94.3666 109.24C94.6714 109.949 95.2028 110.597 95.8765 111.005C96.0646 111.122 96.2626 111.22 96.4653 111.3C97.0736 111.539 97.7101 111.619 98.3227 111.617C98.7453 111.615 99.1725 111.595 99.6154 111.52C99.9835 111.458 100.349 111.36 100.701 111.225L101.017 111.103L101.014 110.772C101.012 110.46 101.009 110.148 101.006 109.836L100.999 109.193L100.394 109.381C100.088 109.477 99.7759 109.556 99.4599 109.621C99.1418 109.686 98.8124 109.718 98.4787 109.723C97.9617 109.732 97.4616 109.641 97.0607 109.397C96.6902 109.17 96.4016 108.821 96.2086 108.398C95.9843 107.893 95.8882 107.309 95.8725 106.716C95.8602 106.256 95.8996 105.799 96.0226 105.37C96.1268 104.998 96.2881 104.65 96.5225 104.36C96.6554 104.191 96.8084 104.044 96.9816 103.921C97.0943 103.842 97.2155 103.772 97.3431 103.714C97.6952 103.545 98.0885 103.462 98.4907 103.448ZM98.4907 103.073V103.448V103.073ZM113.273 111.188C113.273 111.063 113.273 110.938 113.273 110.813C112.913 110.803 112.553 110.793 112.193 110.784L112.409 111C112.42 110.602 112.43 110.204 112.44 109.806C112.463 108.872 112.484 107.938 112.504 107.004L112.511 106.699L112.193 106.693C110.729 106.661 109.265 106.634 107.801 106.61L107.414 106.604L107.407 107.004C107.386 108.336 107.368 109.668 107.353 111L107.801 110.552C107.441 110.548 107.081 110.544 106.721 110.541L107.18 111C107.207 108.268 107.221 105.536 107.221 102.804C107.221 102.68 107.221 102.556 107.221 102.432L106.721 102.932C107.081 102.932 107.441 102.931 107.801 102.931L107.302 102.432C107.304 103.64 107.309 104.848 107.316 106.056L107.313 106.537L107.801 106.54C109.265 106.531 110.729 106.519 112.193 106.502L112.633 106.507L112.639 106.056C112.625 104.848 112.608 103.64 112.589 102.432L112.193 102.828C112.553 102.823 112.913 102.817 113.273 102.811L112.894 102.432C112.93 104.53 112.974 106.628 113.026 108.726C113.045 109.484 113.064 110.242 113.085 111C113.21 111 113.335 111 113.46 111C113.481 110.242 113.501 109.484 113.52 108.726C113.571 106.628 113.615 104.53 113.651 102.432L113.645 102.047L113.273 102.053C112.913 102.047 112.553 102.041 112.193 102.036L111.79 102.042L111.796 102.432C111.777 103.64 111.761 104.848 111.747 106.056L112.193 105.61C110.729 105.593 109.265 105.581 107.801 105.572L108.285 106.056C108.293 104.848 108.297 103.64 108.299 102.432L108.299 101.932L107.801 101.933C107.441 101.933 107.081 101.932 106.721 101.932L106.221 101.932L106.221 102.432C106.221 102.556 106.221 102.68 106.221 102.804C106.221 105.536 106.234 108.268 106.261 111L106.266 111.464L106.721 111.459C107.081 111.456 107.441 111.452 107.801 111.448L108.254 111.443L108.249 111C108.234 109.668 108.216 108.336 108.194 107.004L107.801 107.398C109.265 107.374 110.729 107.347 112.193 107.315L111.881 107.004C111.901 107.938 111.923 108.872 111.946 109.806C111.956 110.204 111.966 110.602 111.976 111L111.982 111.222L112.193 111.216C112.553 111.207 112.913 111.197 113.273 111.188ZM113.273 110.813V111.188L113.465 111.182L113.46 111H113.085L113.273 110.813ZM125.137 111.068C125.253 111.023 125.369 110.977 125.486 110.932C125.32 110.447 125.152 109.963 124.984 109.479C124.841 109.066 124.697 108.654 124.552 108.242L124.489 108.062L124.279 108.055C123.147 108.018 122.015 107.986 120.883 107.958L120.625 107.952L120.519 108.208C120.158 109.084 119.8 109.961 119.445 110.839L119.863 110.552C119.499 110.546 119.135 110.541 118.771 110.536L119.204 111.168C119.853 109.566 120.491 107.959 121.118 106.348C121.607 105.091 122.089 103.831 122.565 102.569L122.119 102.874C122.443 102.871 122.767 102.867 123.091 102.863L122.656 102.565C123.754 105.288 124.884 107.999 126.045 110.697C126.101 110.826 126.156 110.955 126.212 111.084L126.427 110.769C126.055 110.783 125.683 110.797 125.311 110.813C125.311 110.938 125.311 111.063 125.311 111.188C125.683 111.203 126.055 111.217 126.427 111.231L126.773 111.219L126.643 110.916C126.597 110.784 126.551 110.651 126.506 110.519C125.544 107.743 124.551 104.979 123.526 102.227L123.405 101.925L123.091 101.929C122.767 101.925 122.443 101.921 122.119 101.918L121.787 101.921L121.673 102.223C121.171 103.474 120.675 104.728 120.186 105.985C119.559 107.596 118.943 109.212 118.338 110.832L118.098 111.473L118.771 111.464C119.135 111.459 119.499 111.454 119.863 111.448L120.178 111.443L120.281 111.161C120.606 110.271 120.928 109.38 121.247 108.488L120.883 108.738C122.015 108.711 123.147 108.678 124.279 108.641L124.007 108.454C124.178 108.856 124.351 109.257 124.524 109.658C124.727 110.128 124.931 110.598 125.137 111.068ZM125.486 110.932L125.137 111.068L125.191 111.192L125.311 111.188V110.813L125.486 110.932ZM122.527 104.972C122.839 104.855 123.151 104.737 123.463 104.62C123.428 104.524 123.387 104.403 123.35 104.29C123.331 104.234 123.313 104.179 123.294 104.123C123.257 104.009 123.22 103.895 123.184 103.78L123.191 103.806C123.152 103.659 123.115 103.517 123.062 103.354L122.519 101.725L122.102 103.391C122.062 103.55 122.02 103.708 121.974 103.867L121.97 103.883C121.936 104.02 121.897 104.154 121.852 104.282L121.844 104.307C121.81 104.42 121.776 104.532 121.741 104.638L121.747 104.62C121.423 105.484 121.099 106.348 120.775 107.212L120.522 107.888H121.243C122.147 107.888 123.051 107.888 123.955 107.888H124.674L124.424 107.214C124.167 106.521 123.911 105.828 123.654 105.135C123.591 104.964 123.527 104.793 123.464 104.622C123.152 104.738 122.839 104.854 122.526 104.97C122.59 105.14 122.653 105.311 122.716 105.482C122.973 106.175 123.23 106.868 123.486 107.562L123.955 106.888C123.051 106.888 122.147 106.888 121.243 106.888L121.711 107.564C122.035 106.7 122.359 105.836 122.683 104.972L122.69 104.954C122.731 104.83 122.768 104.709 122.803 104.589L122.795 104.614C122.852 104.451 122.9 104.288 122.94 104.125L122.936 104.141C122.984 103.973 123.03 103.804 123.072 103.633L122.113 103.67C122.15 103.784 122.188 103.923 122.223 104.058L122.231 104.084C122.268 104.201 122.306 104.318 122.344 104.435C122.363 104.492 122.382 104.549 122.401 104.606C122.441 104.726 122.478 104.838 122.527 104.972ZM123.463 104.62L122.527 104.972L123.464 104.622L123.463 104.62ZM138.711 111.188C138.711 111.063 138.711 110.938 138.711 110.813C138.291 110.803 137.871 110.793 137.451 110.783L137.633 110.883C137.392 110.49 137.151 110.097 136.91 109.704C135.674 107.692 134.431 105.684 133.183 103.681L133.077 103.512L132.867 103.509C132.851 103.509 132.835 103.508 132.819 103.508L132.428 103.502L132.444 103.905C132.45 104.063 132.456 104.222 132.461 104.381L132.462 104.399C132.476 104.582 132.484 104.768 132.488 104.955C132.494 105.163 132.499 105.371 132.504 105.579C132.509 105.79 132.51 106.001 132.507 106.212C132.487 107.808 132.47 109.404 132.456 111L132.915 110.541C132.583 110.538 132.251 110.535 131.919 110.533L132.387 111C132.408 108.153 132.419 105.305 132.419 102.458C132.419 102.449 132.419 102.441 132.419 102.432L131.919 102.932C132.335 102.932 132.751 102.932 133.167 102.931L132.748 102.703C134.274 105.065 135.81 107.421 137.355 109.772L137.486 109.98L137.739 109.982C137.755 109.982 137.771 109.982 137.787 109.981L138.28 109.986L138.243 109.486C138.232 109.366 138.224 109.236 138.217 109.106C138.206 108.917 138.197 108.726 138.187 108.535C138.177 108.316 138.167 108.096 138.157 107.876C138.148 107.673 138.141 107.47 138.139 107.268C138.121 105.656 138.101 104.044 138.076 102.432L137.703 102.805C138.039 102.8 138.375 102.795 138.711 102.789L138.354 102.432C138.386 104.407 138.422 106.382 138.464 108.357C138.483 109.238 138.503 110.119 138.524 111C138.649 111 138.774 111 138.899 111C138.92 110.119 138.939 109.238 138.958 108.357C139 106.382 139.037 104.407 139.069 102.432L139.063 102.069L138.711 102.075C138.375 102.069 138.039 102.064 137.703 102.059L137.325 102.065L137.33 102.432C137.306 104.044 137.285 105.656 137.268 107.268C137.266 107.483 137.268 107.696 137.274 107.908C137.279 108.128 137.285 108.348 137.291 108.569C137.297 108.762 137.303 108.955 137.31 109.149C137.315 109.285 137.321 109.418 137.332 109.562L137.787 109.067C137.771 109.066 137.755 109.066 137.739 109.066L138.124 109.276C136.621 106.899 135.108 104.527 133.587 102.161L133.439 101.932L133.167 101.933C132.751 101.932 132.335 101.932 131.919 101.932L131.419 101.932L131.419 102.432C131.419 102.441 131.419 102.449 131.419 102.458C131.419 105.305 131.43 108.153 131.452 111L131.456 111.471L131.919 111.467C132.251 111.465 132.583 111.462 132.915 111.459L133.378 111.455L133.375 111C133.361 109.404 133.344 107.808 133.323 106.212C133.321 105.991 133.314 105.77 133.303 105.549C133.292 105.341 133.281 105.133 133.27 104.924C133.26 104.727 133.246 104.529 133.225 104.329L133.226 104.347C133.216 104.186 133.206 104.025 133.195 103.863L132.819 104.26C132.835 104.26 132.851 104.259 132.867 104.259L132.552 104.087C133.86 106.053 135.174 108.014 136.495 109.971C136.753 110.353 137.011 110.735 137.269 111.117L137.338 111.219L137.451 111.217C137.871 111.207 138.291 111.197 138.711 111.188ZM138.711 110.813V111.188L138.903 111.183L138.899 111H138.524L138.711 110.813ZM149.077 106.289C149.077 106.414 149.077 106.539 149.077 106.664C149.876 106.684 150.675 106.704 151.474 106.723C151.663 106.727 151.852 106.732 152.041 106.736L151.781 106.476C151.749 107.876 151.72 109.276 151.694 110.676L151.933 110.347C151.49 110.483 151.037 110.583 150.58 110.645C150.073 110.712 149.552 110.731 149.029 110.723C148.299 110.712 147.581 110.57 146.999 110.221C146.474 109.902 146.063 109.433 145.799 108.87C145.503 108.22 145.392 107.472 145.399 106.716C145.404 105.969 145.545 105.238 145.883 104.619C146.187 104.056 146.641 103.604 147.204 103.3C147.795 102.973 148.492 102.83 149.207 102.814C149.26 102.813 149.312 102.812 149.365 102.812C149.79 102.812 150.212 102.849 150.619 102.932C151.003 103.01 151.374 103.12 151.723 103.271L151.466 102.618C151.331 102.93 151.196 103.243 151.061 103.555L151.713 103.303C151.347 103.141 150.973 103.023 150.599 102.932C150.175 102.825 149.737 102.777 149.305 102.78C148.642 102.783 147.936 102.915 147.321 103.276C146.762 103.596 146.302 104.11 146.033 104.681C145.715 105.332 145.616 106.042 145.624 106.716C145.632 107.373 145.735 108.05 146.003 108.681C146.252 109.253 146.689 109.757 147.219 110.073C147.878 110.457 148.605 110.538 149.281 110.529C149.511 110.525 149.743 110.515 149.98 110.491L149.992 110.49C150.179 110.464 150.366 110.433 150.556 110.391C150.711 110.359 150.87 110.323 151.028 110.285L151.267 110.237L151.273 109.98C151.256 109.132 151.237 108.284 151.218 107.436L151.224 107.185L150.961 107.179C150.812 107.182 150.663 107.186 150.514 107.189C150.035 107.2 149.556 107.212 149.077 107.224L149.289 107.436C149.281 107.116 149.272 106.796 149.264 106.476C149.139 106.476 149.014 106.476 148.889 106.476C148.881 106.796 148.872 107.116 148.864 107.436L148.87 107.653L149.077 107.648C149.556 107.66 150.035 107.672 150.514 107.683C150.663 107.686 150.812 107.69 150.961 107.693L150.703 107.436C150.684 108.284 150.665 109.132 150.648 109.98L150.893 109.675C150.741 109.706 150.587 109.734 150.432 109.76C150.261 109.79 150.088 109.813 149.913 109.83L149.925 109.829C149.715 109.842 149.498 109.843 149.281 109.839C148.675 109.828 148.073 109.72 147.618 109.429C147.223 109.174 146.925 108.807 146.747 108.368C146.549 107.861 146.473 107.292 146.481 106.716C146.488 106.131 146.591 105.561 146.839 105.081C147.055 104.652 147.376 104.311 147.784 104.084C148.226 103.835 148.756 103.735 149.305 103.74C149.664 103.742 150.019 103.786 150.36 103.876C150.693 103.961 151.014 104.067 151.312 104.201L151.768 104.403L151.964 103.949C152.101 103.637 152.238 103.326 152.375 103.014L152.572 102.557L152.118 102.361C151.698 102.177 151.26 102.046 150.82 101.955C150.338 101.854 149.848 101.812 149.365 101.812C149.304 101.812 149.243 101.813 149.183 101.814C148.356 101.834 147.491 102.001 146.724 102.429C146.01 102.816 145.398 103.435 145.022 104.157C144.594 104.959 144.443 105.86 144.45 106.716C144.457 107.568 144.594 108.453 144.983 109.261C145.326 109.962 145.887 110.577 146.566 110.961C147.339 111.398 148.21 111.529 149.029 111.517C149.58 111.509 150.136 111.473 150.693 111.379C151.188 111.296 151.676 111.169 152.148 111.005L152.391 110.921L152.387 110.676C152.361 109.276 152.332 107.876 152.3 106.476L152.294 106.21L152.041 106.216C151.852 106.22 151.663 106.225 151.474 106.229C150.675 106.248 149.876 106.268 149.077 106.289ZM149.077 106.664V106.289L148.884 106.294L148.889 106.476H149.264L149.077 106.664ZM163.195 111.188C163.195 111.063 163.195 110.938 163.195 110.813C162.51 110.792 161.825 110.772 161.139 110.753C160.229 110.728 159.318 110.705 158.407 110.684L158.723 111C158.79 108.144 158.838 105.288 158.869 102.432L158.407 102.894C160.003 102.911 161.599 102.922 163.195 102.928L162.699 102.432C162.698 102.748 162.697 103.064 162.697 103.38L163.195 102.882C162.707 102.881 162.219 102.88 161.731 102.88C160.983 102.88 160.235 102.881 159.487 102.884L158.992 102.882L158.991 103.38C158.994 104.272 158.998 105.164 159.005 106.056L159.001 106.535L159.487 106.538C160.651 106.53 161.815 106.518 162.979 106.504L162.531 106.056C162.535 106.368 162.539 106.68 162.544 106.992L162.979 106.557C161.815 106.573 160.651 106.592 159.487 106.614L159.116 106.607L159.109 106.992C159.128 108.012 159.15 109.032 159.174 110.052L159.167 110.358L159.487 110.365C160.354 110.345 161.221 110.323 162.087 110.299C162.457 110.289 162.826 110.278 163.195 110.268L162.979 110.052C162.988 110.368 162.998 110.684 163.007 111C163.132 111 163.257 111 163.382 111C163.392 110.684 163.401 110.368 163.411 110.052L163.404 109.83L163.195 109.836C162.826 109.826 162.457 109.815 162.087 109.805C161.221 109.781 160.354 109.759 159.487 109.739L159.8 110.052C159.824 109.032 159.846 108.012 159.865 106.992L159.487 107.37C160.651 107.392 161.815 107.411 162.979 107.427L163.42 107.421L163.414 106.992C163.419 106.68 163.423 106.368 163.427 106.056L163.421 105.603L162.979 105.608C161.815 105.594 160.651 105.582 159.487 105.574L159.969 106.056C159.976 105.164 159.98 104.272 159.983 103.38L159.487 103.876C160.235 103.879 160.983 103.88 161.731 103.88C162.219 103.88 162.707 103.879 163.195 103.878L163.694 103.877L163.693 103.38C163.693 103.064 163.692 102.748 163.691 102.432L163.689 101.935L163.195 101.936C161.599 101.942 160.003 101.953 158.407 101.97L157.94 101.975L157.945 102.432C157.976 105.288 158.024 108.144 158.091 111L158.098 111.323L158.407 111.316C159.318 111.295 160.229 111.272 161.139 111.247C161.825 111.228 162.51 111.208 163.195 111.188ZM163.195 110.813V111.188L163.388 111.182L163.382 111H163.007L163.195 110.813Z" fill="url(#paint40_linear_8_121)" mask="url(#path-24-outside-3_8_121)"/>
<defs>
<clipPath id="paint36_diamond_8_121_clip_path"><ellipse cx="43" cy="24" rx="43" ry="24"/></clipPath><clipPath id="paint37_diamond_8_121_clip_path"><ellipse cx="115.5" cy="65" rx="25.5" ry="21"/></clipPath><clipPath id="paint38_diamond_8_121_clip_path"><ellipse cx="49" cy="119" rx="27" ry="24"/></clipPath><linearGradient id="paint0_linear_8_121" x1="73.8897" y1="14.8136" x2="73.8897" y2="14.0208" gradientUnits="userSpaceOnUse">
<stop offset="0.01" stop-color="#FFF0DA"/>
<stop offset="0.04" stop-color="#94641E"/>
<stop offset="0.83" stop-color="#EAC885"/>
<stop offset="0.94" stop-color="#FFF2DB"/>
<stop offset="0.98" stop-color="#FBF5D1"/>
<stop offset="1" stop-color="#BD9A4B"/>
</linearGradient>
<linearGradient id="paint1_linear_8_121" x1="74.6855" y1="14" x2="74.6855" y2="14.8248" gradientUnits="userSpaceOnUse">
<stop stop-color="#FCF6D1"/>
<stop offset="0.1" stop-color="#BD9457"/>
<stop offset="0.25" stop-color="#E3CA89"/>
<stop offset="0.7" stop-color="#FEE8C8"/>
<stop offset="0.85" stop-color="#4D3A1A"/>
<stop offset="1" stop-color="#FCF0D1"/>
</linearGradient>
<linearGradient id="paint2_linear_8_121" x1="50.4591" y1="95.9605" x2="50.4591" y2="21.9372" gradientUnits="userSpaceOnUse">
<stop offset="0.00999999" stop-color="#FFF0DA"/>
<stop offset="0.04" stop-color="#94641E"/>
<stop offset="0.83" stop-color="#EAC885"/>
<stop offset="0.94" stop-color="#FFF2DB"/>
<stop offset="0.98" stop-color="#FBF5D1"/>
<stop offset="1" stop-color="#BD9A4B"/>
</linearGradient>
<linearGradient id="paint3_linear_8_121" x1="96" y1="20" x2="96" y2="97" gradientUnits="userSpaceOnUse">
<stop stop-color="#FCF6D1"/>
<stop offset="0.1" stop-color="#BD9457"/>
<stop offset="0.25" stop-color="#E3CA89"/>
<stop offset="0.7" stop-color="#FEE8C8"/>
<stop offset="0.85" stop-color="#4D3A1A"/>
<stop offset="1" stop-color="#FCF0D1"/>
</linearGradient>
<linearGradient id="paint4_linear_8_121" x1="48.6379" y1="213.429" x2="48.6379" y2="118.542" gradientUnits="userSpaceOnUse">
<stop offset="0.01" stop-color="#FFF0DA"/>
<stop offset="0.04" stop-color="#94641E"/>
<stop offset="0.83" stop-color="#EAC885"/>
<stop offset="0.94" stop-color="#FFF2DB"/>
<stop offset="0.98" stop-color="#FBF5D1"/>
<stop offset="1" stop-color="#BD9A4B"/>
</linearGradient>
<linearGradient id="paint5_linear_8_121" x1="113.131" y1="116.059" x2="113.131" y2="214.761" gradientUnits="userSpaceOnUse">
<stop stop-color="#FCF6D1"/>
<stop offset="0.1" stop-color="#BD9457"/>
<stop offset="0.25" stop-color="#E3CA89"/>
<stop offset="0.7" stop-color="#FEE8C8"/>
<stop offset="0.85" stop-color="#4D3A1A"/>
<stop offset="1" stop-color="#FCF0D1"/>
</linearGradient>
<linearGradient id="paint6_linear_8_121" x1="92.6565" y1="24.8171" x2="92.6565" y2="22.6135" gradientUnits="userSpaceOnUse">
<stop offset="0.01" stop-color="#FFF0DA"/>
<stop offset="0.04" stop-color="#94641E"/>
<stop offset="0.83" stop-color="#EAC885"/>
<stop offset="0.94" stop-color="#FFF2DB"/>
<stop offset="0.98" stop-color="#FBF5D1"/>
<stop offset="1" stop-color="#BD9A4B"/>
</linearGradient>
<linearGradient id="paint7_linear_8_121" x1="93.3718" y1="22.5558" x2="93.3718" y2="24.8481" gradientUnits="userSpaceOnUse">
<stop stop-color="#FCF6D1"/>
<stop offset="0.1" stop-color="#BD9457"/>
<stop offset="0.25" stop-color="#E3CA89"/>
<stop offset="0.7" stop-color="#FEE8C8"/>
<stop offset="0.85" stop-color="#4D3A1A"/>
<stop offset="1" stop-color="#FCF0D1"/>
</linearGradient>
<linearGradient id="paint8_linear_8_121" x1="101.345" y1="34.9972" x2="101.345" y2="32.5767" gradientUnits="userSpaceOnUse">
<stop offset="0.01" stop-color="#FFF0DA"/>
<stop offset="0.04" stop-color="#94641E"/>
<stop offset="0.83" stop-color="#EAC885"/>
<stop offset="0.94" stop-color="#FFF2DB"/>
<stop offset="0.98" stop-color="#FBF5D1"/>
<stop offset="1" stop-color="#BD9A4B"/>
</linearGradient>
<linearGradient id="paint9_linear_8_121" x1="101.785" y1="32.5133" x2="101.785" y2="35.0312" gradientUnits="userSpaceOnUse">
<stop stop-color="#FCF6D1"/>
<stop offset="0.1" stop-color="#BD9457"/>
<stop offset="0.25" stop-color="#E3CA89"/>
<stop offset="0.7" stop-color="#FEE8C8"/>
<stop offset="0.85" stop-color="#4D3A1A"/>
<stop offset="1" stop-color="#FCF0D1"/>
</linearGradient>
<linearGradient id="paint10_linear_8_121" x1="82.2801" y1="44.3681" x2="82.2801" y2="41.8146" gradientUnits="userSpaceOnUse">
<stop offset="0.01" stop-color="#FFF0DA"/>
<stop offset="0.04" stop-color="#94641E"/>
<stop offset="0.83" stop-color="#EAC885"/>
<stop offset="0.94" stop-color="#FFF2DB"/>
<stop offset="0.98" stop-color="#FBF5D1"/>
<stop offset="1" stop-color="#BD9A4B"/>
</linearGradient>
<linearGradient id="paint11_linear_8_121" x1="82.7826" y1="41.7478" x2="82.7826" y2="44.4039" gradientUnits="userSpaceOnUse">
<stop stop-color="#FCF6D1"/>
<stop offset="0.1" stop-color="#BD9457"/>
<stop offset="0.25" stop-color="#E3CA89"/>
<stop offset="0.7" stop-color="#FEE8C8"/>
<stop offset="0.85" stop-color="#4D3A1A"/>
<stop offset="1" stop-color="#FCF0D1"/>
</linearGradient>
<linearGradient id="paint12_linear_8_121" x1="79.8857" y1="73.3228" x2="79.8857" y2="71.6396" gradientUnits="userSpaceOnUse">
<stop offset="0.01" stop-color="#FFF0DA"/>
<stop offset="0.04" stop-color="#94641E"/>
<stop offset="0.83" stop-color="#EAC885"/>
<stop offset="0.94" stop-color="#FFF2DB"/>
<stop offset="0.98" stop-color="#FBF5D1"/>
<stop offset="1" stop-color="#BD9A4B"/>
</linearGradient>
<linearGradient id="paint13_linear_8_121" x1="80.5282" y1="71.5955" x2="80.5282" y2="73.3465" gradientUnits="userSpaceOnUse">
<stop stop-color="#FCF6D1"/>
<stop offset="0.1" stop-color="#BD9457"/>
<stop offset="0.25" stop-color="#E3CA89"/>
<stop offset="0.7" stop-color="#FEE8C8"/>
<stop offset="0.85" stop-color="#4D3A1A"/>
<stop offset="1" stop-color="#FCF0D1"/>
</linearGradient>
<linearGradient id="paint14_linear_8_121" x1="158.583" y1="78.5962" x2="158.583" y2="75.885" gradientUnits="userSpaceOnUse">
<stop offset="0.01" stop-color="#FFF0DA"/>
<stop offset="0.04" stop-color="#94641E"/>
<stop offset="0.83" stop-color="#EAC885"/>
<stop offset="0.94" stop-color="#FFF2DB"/>
<stop offset="0.98" stop-color="#FBF5D1"/>
<stop offset="1" stop-color="#BD9A4B"/>
</linearGradient>
<linearGradient id="paint15_linear_8_121" x1="159.377" y1="75.814" x2="159.377" y2="78.6343" gradientUnits="userSpaceOnUse">
<stop stop-color="#FCF6D1"/>
<stop offset="0.1" stop-color="#BD9457"/>
<stop offset="0.25" stop-color="#E3CA89"/>
<stop offset="0.7" stop-color="#FEE8C8"/>
<stop offset="0.85" stop-color="#4D3A1A"/>
<stop offset="1" stop-color="#FCF0D1"/>
</linearGradient>
<linearGradient id="paint16_linear_8_121" x1="70.8495" y1="80.8388" x2="70.8495" y2="78.9575" gradientUnits="userSpaceOnUse">
<stop offset="0.01" stop-color="#FFF0DA"/>
<stop offset="0.04" stop-color="#94641E"/>
<stop offset="0.83" stop-color="#EAC885"/>
<stop offset="0.94" stop-color="#FFF2DB"/>
<stop offset="0.98" stop-color="#FBF5D1"/>
<stop offset="1" stop-color="#BD9A4B"/>
</linearGradient>
<linearGradient id="paint17_linear_8_121" x1="71.7008" y1="78.9083" x2="71.7008" y2="80.8652" gradientUnits="userSpaceOnUse">
<stop stop-color="#FCF6D1"/>
<stop offset="0.1" stop-color="#BD9457"/>
<stop offset="0.25" stop-color="#E3CA89"/>
<stop offset="0.7" stop-color="#FEE8C8"/>
<stop offset="0.85" stop-color="#4D3A1A"/>
<stop offset="1" stop-color="#FCF0D1"/>
</linearGradient>
<linearGradient id="paint18_linear_8_121" x1="104.273" y1="149.822" x2="104.273" y2="145.997" gradientUnits="userSpaceOnUse">
<stop offset="0.01" stop-color="#FFF0DA"/>
<stop offset="0.04" stop-color="#94641E"/>
<stop offset="0.83" stop-color="#EAC885"/>
<stop offset="0.94" stop-color="#FFF2DB"/>
<stop offset="0.98" stop-color="#FBF5D1"/>
<stop offset="1" stop-color="#BD9A4B"/>
</linearGradient>
<linearGradient id="paint19_linear_8_121" x1="105.121" y1="145.897" x2="105.121" y2="149.875" gradientUnits="userSpaceOnUse">
<stop stop-color="#FCF6D1"/>
<stop offset="0.1" stop-color="#BD9457"/>
<stop offset="0.25" stop-color="#E3CA89"/>
<stop offset="0.7" stop-color="#FEE8C8"/>
<stop offset="0.85" stop-color="#4D3A1A"/>
<stop offset="1" stop-color="#FCF0D1"/>
</linearGradient>
<linearGradient id="paint20_linear_8_121" x1="98.7504" y1="156.019" x2="98.7504" y2="153.342" gradientUnits="userSpaceOnUse">
<stop offset="0.01" stop-color="#FFF0DA"/>
<stop offset="0.04" stop-color="#94641E"/>
<stop offset="0.83" stop-color="#EAC885"/>
<stop offset="0.94" stop-color="#FFF2DB"/>
<stop offset="0.98" stop-color="#FBF5D1"/>
<stop offset="1" stop-color="#BD9A4B"/>
</linearGradient>
<linearGradient id="paint21_linear_8_121" x1="99.6492" y1="153.272" x2="99.6492" y2="156.056" gradientUnits="userSpaceOnUse">
<stop stop-color="#FCF6D1"/>
<stop offset="0.1" stop-color="#BD9457"/>
<stop offset="0.25" stop-color="#E3CA89"/>
<stop offset="0.7" stop-color="#FEE8C8"/>
<stop offset="0.85" stop-color="#4D3A1A"/>
<stop offset="1" stop-color="#FCF0D1"/>
</linearGradient>
<linearGradient id="paint22_linear_8_121" x1="19.8073" y1="160.702" x2="19.8073" y2="158.279" gradientUnits="userSpaceOnUse">
<stop offset="0.01" stop-color="#FFF0DA"/>
<stop offset="0.04" stop-color="#94641E"/>
<stop offset="0.83" stop-color="#EAC885"/>
<stop offset="0.94" stop-color="#FFF2DB"/>
<stop offset="0.98" stop-color="#FBF5D1"/>
<stop offset="1" stop-color="#BD9A4B"/>
</linearGradient>
<linearGradient id="paint23_linear_8_121" x1="20.9037" y1="158.216" x2="20.9037" y2="160.736" gradientUnits="userSpaceOnUse">
<stop stop-color="#FCF6D1"/>
<stop offset="0.1" stop-color="#BD9457"/>
<stop offset="0.25" stop-color="#E3CA89"/>
<stop offset="0.7" stop-color="#FEE8C8"/>
<stop offset="0.85" stop-color="#4D3A1A"/>
<stop offset="1" stop-color="#FCF0D1"/>
</linearGradient>
<linearGradient id="paint24_linear_8_121" x1="174.654" y1="160.561" x2="174.654" y2="158.777" gradientUnits="userSpaceOnUse">
<stop offset="0.01" stop-color="#FFF0DA"/>
<stop offset="0.04" stop-color="#94641E"/>
<stop offset="0.83" stop-color="#EAC885"/>
<stop offset="0.94" stop-color="#FFF2DB"/>
<stop offset="0.98" stop-color="#FBF5D1"/>
<stop offset="1" stop-color="#BD9A4B"/>
</linearGradient>
<linearGradient id="paint25_linear_8_121" x1="175.522" y1="158.73" x2="175.522" y2="160.586" gradientUnits="userSpaceOnUse">
<stop stop-color="#FCF6D1"/>
<stop offset="0.1" stop-color="#BD9457"/>
<stop offset="0.25" stop-color="#E3CA89"/>
<stop offset="0.7" stop-color="#FEE8C8"/>
<stop offset="0.85" stop-color="#4D3A1A"/>
<stop offset="1" stop-color="#FCF0D1"/>
</linearGradient>
<linearGradient id="paint26_linear_8_121" x1="24.9984" y1="167.287" x2="24.9984" y2="163.756" gradientUnits="userSpaceOnUse">
<stop offset="0.01" stop-color="#FFF0DA"/>
<stop offset="0.04" stop-color="#94641E"/>
<stop offset="0.83" stop-color="#EAC885"/>
<stop offset="0.94" stop-color="#FFF2DB"/>
<stop offset="0.98" stop-color="#FBF5D1"/>
<stop offset="1" stop-color="#BD9A4B"/>
</linearGradient>
<linearGradient id="paint27_linear_8_121" x1="26.671" y1="163.664" x2="26.671" y2="167.337" gradientUnits="userSpaceOnUse">
<stop stop-color="#FCF6D1"/>
<stop offset="0.1" stop-color="#BD9457"/>
<stop offset="0.25" stop-color="#E3CA89"/>
<stop offset="0.7" stop-color="#FEE8C8"/>
<stop offset="0.85" stop-color="#4D3A1A"/>
<stop offset="1" stop-color="#FCF0D1"/>
</linearGradient>
<linearGradient id="paint28_linear_8_121" x1="202.394" y1="187.65" x2="202.394" y2="185.966" gradientUnits="userSpaceOnUse">
<stop offset="0.01" stop-color="#FFF0DA"/>
<stop offset="0.04" stop-color="#94641E"/>
<stop offset="0.83" stop-color="#EAC885"/>
<stop offset="0.94" stop-color="#FFF2DB"/>
<stop offset="0.98" stop-color="#FBF5D1"/>
<stop offset="1" stop-color="#BD9A4B"/>
</linearGradient>
<linearGradient id="paint29_linear_8_121" x1="203.036" y1="185.922" x2="203.036" y2="187.673" gradientUnits="userSpaceOnUse">
<stop stop-color="#FCF6D1"/>
<stop offset="0.1" stop-color="#BD9457"/>
<stop offset="0.25" stop-color="#E3CA89"/>
<stop offset="0.7" stop-color="#FEE8C8"/>
<stop offset="0.85" stop-color="#4D3A1A"/>
<stop offset="1" stop-color="#FCF0D1"/>
</linearGradient>
<linearGradient id="paint30_linear_8_121" x1="190.232" y1="196.702" x2="190.232" y2="194.282" gradientUnits="userSpaceOnUse">
<stop offset="0.01" stop-color="#FFF0DA"/>
<stop offset="0.04" stop-color="#94641E"/>
<stop offset="0.83" stop-color="#EAC885"/>
<stop offset="0.94" stop-color="#FFF2DB"/>
<stop offset="0.98" stop-color="#FBF5D1"/>
<stop offset="1" stop-color="#BD9A4B"/>
</linearGradient>
<linearGradient id="paint31_linear_8_121" x1="190.671" y1="194.219" x2="190.671" y2="196.736" gradientUnits="userSpaceOnUse">
<stop stop-color="#FCF6D1"/>
<stop offset="0.1" stop-color="#BD9457"/>
<stop offset="0.25" stop-color="#E3CA89"/>
<stop offset="0.7" stop-color="#FEE8C8"/>
<stop offset="0.85" stop-color="#4D3A1A"/>
<stop offset="1" stop-color="#FCF0D1"/>
</linearGradient>
<linearGradient id="paint32_linear_8_121" x1="190.336" y1="201.262" x2="190.336" y2="198.815" gradientUnits="userSpaceOnUse">
<stop offset="0.01" stop-color="#FFF0DA"/>
<stop offset="0.04" stop-color="#94641E"/>
<stop offset="0.83" stop-color="#EAC885"/>
<stop offset="0.94" stop-color="#FFF2DB"/>
<stop offset="0.98" stop-color="#FBF5D1"/>
<stop offset="1" stop-color="#BD9A4B"/>
</linearGradient>
<linearGradient id="paint33_linear_8_121" x1="191.216" y1="198.751" x2="191.216" y2="201.297" gradientUnits="userSpaceOnUse">
<stop stop-color="#FCF6D1"/>
<stop offset="0.1" stop-color="#BD9457"/>
<stop offset="0.25" stop-color="#E3CA89"/>
<stop offset="0.7" stop-color="#FEE8C8"/>
<stop offset="0.85" stop-color="#4D3A1A"/>
<stop offset="1" stop-color="#FCF0D1"/>
</linearGradient>
<linearGradient id="paint34_linear_8_121" x1="104.89" y1="205.47" x2="104.89" y2="202.778" gradientUnits="userSpaceOnUse">
<stop offset="0.01" stop-color="#FFF0DA"/>
<stop offset="0.04" stop-color="#94641E"/>
<stop offset="0.83" stop-color="#EAC885"/>
<stop offset="0.94" stop-color="#FFF2DB"/>
<stop offset="0.98" stop-color="#FBF5D1"/>
<stop offset="1" stop-color="#BD9A4B"/>
</linearGradient>
<linearGradient id="paint35_linear_8_121" x1="107.032" y1="202.707" x2="107.032" y2="205.508" gradientUnits="userSpaceOnUse">
<stop stop-color="#FCF6D1"/>
<stop offset="0.1" stop-color="#BD9457"/>
<stop offset="0.25" stop-color="#E3CA89"/>
<stop offset="0.7" stop-color="#FEE8C8"/>
<stop offset="0.85" stop-color="#4D3A1A"/>
<stop offset="1" stop-color="#FCF0D1"/>
</linearGradient>
<linearGradient id="paint36_diamond_8_121" x1="0" y1="0" x2="500" y2="500" gradientUnits="userSpaceOnUse">
<stop stop-color="white"/>
<stop offset="1" stop-opacity="0"/>
</linearGradient>
<linearGradient id="paint37_diamond_8_121" x1="0" y1="0" x2="500" y2="500" gradientUnits="userSpaceOnUse">
<stop stop-color="white"/>
<stop offset="1" stop-opacity="0"/>
</linearGradient>
<linearGradient id="paint38_diamond_8_121" x1="0" y1="0" x2="500" y2="500" gradientUnits="userSpaceOnUse">
<stop stop-color="white"/>
<stop offset="1" stop-opacity="0"/>
</linearGradient>
<linearGradient id="paint39_linear_8_121" x1="65.1097" y1="97.2025" x2="65.1097" y2="111.623" gradientUnits="userSpaceOnUse">
<stop offset="0.00999999" stop-color="#FFF0DA"/>
<stop offset="0.04" stop-color="#94641E"/>
<stop offset="0.83" stop-color="#EAC885"/>
<stop offset="0.94" stop-color="#FFF2DB"/>
<stop offset="0.98" stop-color="#FBF5D1"/>
<stop offset="1" stop-color="#BD9A4B"/>
</linearGradient>
<linearGradient id="paint40_linear_8_121" x1="110" y1="112" x2="110" y2="97" gradientUnits="userSpaceOnUse">
<stop stop-color="#FCF6D1"/>
<stop offset="0.1" stop-color="#BD9457"/>
<stop offset="0.25" stop-color="#E3CA89"/>
<stop offset="0.7" stop-color="#FEE8C8"/>
<stop offset="0.85" stop-color="#4D3A1A"/>
<stop offset="1" stop-color="#FCF0D1"/>
</linearGradient>
</defs>
</svg>
