<svg width="94" height="10" viewBox="0 0 94 10" fill="none" xmlns="http://www.w3.org/2000/svg">
<mask id="path-1-outside-1_11_2" maskUnits="userSpaceOnUse" x="-0.681107" y="-0.724976" width="94" height="11" fill="black">
<rect fill="white" x="-0.681107" y="-0.724976" width="600" height="200"/>
<path d="M2.93089 0.707024C3.64289 0.707024 4.23889 0.775024 4.71889 0.911024C5.20689 1.04702 5.57089 1.27102 5.81089 1.58302C6.05889 1.89502 6.18289 2.31102 6.18289 2.83102C6.18289 3.16702 6.11889 3.46702 5.99089 3.73102C5.87089 3.98702 5.68689 4.20302 5.43889 4.37902C5.19889 4.54702 4.90289 4.66302 4.55089 4.72702V4.78702C4.91089 4.84302 5.23489 4.94702 5.52289 5.09902C5.81889 5.25102 6.05089 5.46702 6.21889 5.74702C6.38689 6.02702 6.47089 6.39102 6.47089 6.83902C6.47089 7.35902 6.35089 7.80302 6.11089 8.17102C5.87089 8.53102 5.52689 8.80702 5.07889 8.99902C4.63889 9.18302 4.11089 9.27502 3.49489 9.27502H0.482893V0.707024H2.93089ZM3.14689 4.35502C3.88289 4.35502 4.38689 4.23902 4.65889 4.00702C4.93089 3.76702 5.06689 3.41502 5.06689 2.95102C5.06689 2.47902 4.89889 2.14302 4.56289 1.94302C4.23489 1.73502 3.70689 1.63102 2.97889 1.63102H1.56289V4.35502H3.14689ZM1.56289 5.25502V8.36302H3.29089C4.05089 8.36302 4.57889 8.21502 4.87489 7.91902C5.17089 7.62302 5.31889 7.23502 5.31889 6.75502C5.31889 6.45102 5.25089 6.18702 5.11489 5.96302C4.98689 5.73902 4.76689 5.56702 4.45489 5.44702C4.15089 5.31902 3.73489 5.25502 3.20689 5.25502H1.56289ZM12.4396 9.27502H11.3596V1.65502H8.68358V0.707024H15.1036V1.65502H12.4396V9.27502ZM27.1807 9.27502H22.3927V0.707024H27.1807V1.65502H23.4727V4.33102H26.9647V5.26702H23.4727V8.32702H27.1807V9.27502ZM36.3207 9.27502H35.0967L32.8287 5.55502L30.5247 9.27502H29.3847L32.2287 4.81102L29.5647 0.707024H30.7647L32.8647 4.06702L34.9767 0.707024H36.1167L33.4647 4.78702L36.3207 9.27502ZM42.4096 1.53502C41.9536 1.53502 41.5416 1.61502 41.1736 1.77502C40.8056 1.92702 40.4936 2.15502 40.2376 2.45902C39.9816 2.75502 39.7856 3.11902 39.6496 3.55102C39.5136 3.97502 39.4456 4.45502 39.4456 4.99102C39.4456 5.69502 39.5536 6.30702 39.7696 6.82702C39.9936 7.34702 40.3216 7.74702 40.7536 8.02702C41.1936 8.30702 41.7416 8.44702 42.3976 8.44702C42.7736 8.44702 43.1296 8.41502 43.4656 8.35102C43.8016 8.28702 44.1296 8.20702 44.4496 8.11102V9.04702C44.1296 9.16702 43.7976 9.25502 43.4536 9.31102C43.1176 9.36702 42.7136 9.39502 42.2416 9.39502C41.3696 9.39502 40.6416 9.21502 40.0576 8.85502C39.4736 8.49502 39.0336 7.98302 38.7376 7.31902C38.4496 6.65502 38.3056 5.87502 38.3056 4.97902C38.3056 4.33102 38.3936 3.73902 38.5696 3.20302C38.7536 2.66702 39.0176 2.20302 39.3616 1.81102C39.7136 1.41902 40.1456 1.11902 40.6576 0.911024C41.1696 0.695024 41.7576 0.587024 42.4216 0.587024C42.8616 0.587024 43.2856 0.631024 43.6936 0.719024C44.1016 0.807024 44.4656 0.931024 44.7856 1.09102L44.3536 2.00302C44.0896 1.88302 43.7936 1.77502 43.4656 1.67902C43.1456 1.58302 42.7936 1.53502 42.4096 1.53502ZM54.3116 9.27502H53.2316V5.27902H48.8396V9.27502H47.7596V0.707024H48.8396V4.33102H53.2316V0.707024H54.3116V9.27502ZM63.4701 9.27502L62.4381 6.62302H59.0421L58.0221 9.27502H56.9301L60.2781 0.671024H61.2501L64.5861 9.27502H63.4701ZM61.1541 3.07102C61.1301 3.00702 61.0901 2.89102 61.0341 2.72302C60.9781 2.55502 60.9221 2.38302 60.8661 2.20702C60.8181 2.02302 60.7781 1.88302 60.7461 1.78702C60.7061 1.94702 60.6621 2.11102 60.6141 2.27902C60.5741 2.43902 60.5301 2.58702 60.4821 2.72302C60.4421 2.85902 60.4061 2.97502 60.3741 3.07102L59.4021 5.66302H62.1141L61.1541 3.07102ZM73.9902 9.27502H72.7302L68.1462 2.15902H68.0982C68.1062 2.30302 68.1142 2.46302 68.1222 2.63902C68.1382 2.81502 68.1502 3.00702 68.1582 3.21502C68.1662 3.41502 68.1742 3.62302 68.1822 3.83902C68.1902 4.05502 68.1942 4.27102 68.1942 4.48702V9.27502H67.1982V0.707024H68.4462L73.0182 7.79902H73.0662C73.0582 7.70302 73.0502 7.57102 73.0422 7.40302C73.0342 7.22702 73.0262 7.03502 73.0182 6.82702C73.0102 6.61102 73.0022 6.39102 72.9942 6.16702C72.9862 5.94302 72.9822 5.73502 72.9822 5.54302V0.707024H73.9902V9.27502ZM81.4754 4.75102H84.4394V8.95102C83.9754 9.10302 83.5074 9.21502 83.0354 9.28702C82.5634 9.35902 82.0274 9.39502 81.4274 9.39502C80.5394 9.39502 79.7914 9.21902 79.1834 8.86702C78.5754 8.50702 78.1114 7.99902 77.7914 7.34302C77.4794 6.67902 77.3234 5.89502 77.3234 4.99102C77.3234 4.09502 77.4994 3.31902 77.8514 2.66302C78.2034 2.00702 78.7074 1.49902 79.3634 1.13902C80.0274 0.771024 80.8274 0.587024 81.7634 0.587024C82.2434 0.587024 82.6954 0.631024 83.1194 0.719024C83.5514 0.807024 83.9514 0.931024 84.3194 1.09102L83.9114 2.02702C83.6074 1.89102 83.2634 1.77502 82.8794 1.67902C82.5034 1.58302 82.1114 1.53502 81.7034 1.53502C81.0234 1.53502 80.4394 1.67502 79.9514 1.95502C79.4634 2.23502 79.0914 2.63502 78.8354 3.15502C78.5794 3.66702 78.4514 4.27902 78.4514 4.99102C78.4514 5.67102 78.5594 6.27502 78.7754 6.80302C78.9994 7.32302 79.3474 7.73102 79.8194 8.02702C80.2914 8.31502 80.9114 8.45902 81.6794 8.45902C81.9354 8.45902 82.1594 8.45102 82.3514 8.43502C82.5514 8.41102 82.7314 8.38302 82.8914 8.35102C83.0594 8.31902 83.2154 8.28702 83.3594 8.25502V5.71102H81.4754V4.75102ZM92.7139 9.27502H87.9259V0.707024H92.7139V1.65502H89.0059V4.33102H92.4979V5.26702H89.0059V8.32702H92.7139V9.27502Z"/>
</mask>
<path d="M2.93089 0.707024C3.64289 0.707024 4.23889 0.775024 4.71889 0.911024C5.20689 1.04702 5.57089 1.27102 5.81089 1.58302C6.05889 1.89502 6.18289 2.31102 6.18289 2.83102C6.18289 3.16702 6.11889 3.46702 5.99089 3.73102C5.87089 3.98702 5.68689 4.20302 5.43889 4.37902C5.19889 4.54702 4.90289 4.66302 4.55089 4.72702V4.78702C4.91089 4.84302 5.23489 4.94702 5.52289 5.09902C5.81889 5.25102 6.05089 5.46702 6.21889 5.74702C6.38689 6.02702 6.47089 6.39102 6.47089 6.83902C6.47089 7.35902 6.35089 7.80302 6.11089 8.17102C5.87089 8.53102 5.52689 8.80702 5.07889 8.99902C4.63889 9.18302 4.11089 9.27502 3.49489 9.27502H0.482893V0.707024H2.93089ZM3.14689 4.35502C3.88289 4.35502 4.38689 4.23902 4.65889 4.00702C4.93089 3.76702 5.06689 3.41502 5.06689 2.95102C5.06689 2.47902 4.89889 2.14302 4.56289 1.94302C4.23489 1.73502 3.70689 1.63102 2.97889 1.63102H1.56289V4.35502H3.14689ZM1.56289 5.25502V8.36302H3.29089C4.05089 8.36302 4.57889 8.21502 4.87489 7.91902C5.17089 7.62302 5.31889 7.23502 5.31889 6.75502C5.31889 6.45102 5.25089 6.18702 5.11489 5.96302C4.98689 5.73902 4.76689 5.56702 4.45489 5.44702C4.15089 5.31902 3.73489 5.25502 3.20689 5.25502H1.56289ZM12.4396 9.27502H11.3596V1.65502H8.68358V0.707024H15.1036V1.65502H12.4396V9.27502ZM27.1807 9.27502H22.3927V0.707024H27.1807V1.65502H23.4727V4.33102H26.9647V5.26702H23.4727V8.32702H27.1807V9.27502ZM36.3207 9.27502H35.0967L32.8287 5.55502L30.5247 9.27502H29.3847L32.2287 4.81102L29.5647 0.707024H30.7647L32.8647 4.06702L34.9767 0.707024H36.1167L33.4647 4.78702L36.3207 9.27502ZM42.4096 1.53502C41.9536 1.53502 41.5416 1.61502 41.1736 1.77502C40.8056 1.92702 40.4936 2.15502 40.2376 2.45902C39.9816 2.75502 39.7856 3.11902 39.6496 3.55102C39.5136 3.97502 39.4456 4.45502 39.4456 4.99102C39.4456 5.69502 39.5536 6.30702 39.7696 6.82702C39.9936 7.34702 40.3216 7.74702 40.7536 8.02702C41.1936 8.30702 41.7416 8.44702 42.3976 8.44702C42.7736 8.44702 43.1296 8.41502 43.4656 8.35102C43.8016 8.28702 44.1296 8.20702 44.4496 8.11102V9.04702C44.1296 9.16702 43.7976 9.25502 43.4536 9.31102C43.1176 9.36702 42.7136 9.39502 42.2416 9.39502C41.3696 9.39502 40.6416 9.21502 40.0576 8.85502C39.4736 8.49502 39.0336 7.98302 38.7376 7.31902C38.4496 6.65502 38.3056 5.87502 38.3056 4.97902C38.3056 4.33102 38.3936 3.73902 38.5696 3.20302C38.7536 2.66702 39.0176 2.20302 39.3616 1.81102C39.7136 1.41902 40.1456 1.11902 40.6576 0.911024C41.1696 0.695024 41.7576 0.587024 42.4216 0.587024C42.8616 0.587024 43.2856 0.631024 43.6936 0.719024C44.1016 0.807024 44.4656 0.931024 44.7856 1.09102L44.3536 2.00302C44.0896 1.88302 43.7936 1.77502 43.4656 1.67902C43.1456 1.58302 42.7936 1.53502 42.4096 1.53502ZM54.3116 9.27502H53.2316V5.27902H48.8396V9.27502H47.7596V0.707024H48.8396V4.33102H53.2316V0.707024H54.3116V9.27502ZM63.4701 9.27502L62.4381 6.62302H59.0421L58.0221 9.27502H56.9301L60.2781 0.671024H61.2501L64.5861 9.27502H63.4701ZM61.1541 3.07102C61.1301 3.00702 61.0901 2.89102 61.0341 2.72302C60.9781 2.55502 60.9221 2.38302 60.8661 2.20702C60.8181 2.02302 60.7781 1.88302 60.7461 1.78702C60.7061 1.94702 60.6621 2.11102 60.6141 2.27902C60.5741 2.43902 60.5301 2.58702 60.4821 2.72302C60.4421 2.85902 60.4061 2.97502 60.3741 3.07102L59.4021 5.66302H62.1141L61.1541 3.07102ZM73.9902 9.27502H72.7302L68.1462 2.15902H68.0982C68.1062 2.30302 68.1142 2.46302 68.1222 2.63902C68.1382 2.81502 68.1502 3.00702 68.1582 3.21502C68.1662 3.41502 68.1742 3.62302 68.1822 3.83902C68.1902 4.05502 68.1942 4.27102 68.1942 4.48702V9.27502H67.1982V0.707024H68.4462L73.0182 7.79902H73.0662C73.0582 7.70302 73.0502 7.57102 73.0422 7.40302C73.0342 7.22702 73.0262 7.03502 73.0182 6.82702C73.0102 6.61102 73.0022 6.39102 72.9942 6.16702C72.9862 5.94302 72.9822 5.73502 72.9822 5.54302V0.707024H73.9902V9.27502ZM81.4754 4.75102H84.4394V8.95102C83.9754 9.10302 83.5074 9.21502 83.0354 9.28702C82.5634 9.35902 82.0274 9.39502 81.4274 9.39502C80.5394 9.39502 79.7914 9.21902 79.1834 8.86702C78.5754 8.50702 78.1114 7.99902 77.7914 7.34302C77.4794 6.67902 77.3234 5.89502 77.3234 4.99102C77.3234 4.09502 77.4994 3.31902 77.8514 2.66302C78.2034 2.00702 78.7074 1.49902 79.3634 1.13902C80.0274 0.771024 80.8274 0.587024 81.7634 0.587024C82.2434 0.587024 82.6954 0.631024 83.1194 0.719024C83.5514 0.807024 83.9514 0.931024 84.3194 1.09102L83.9114 2.02702C83.6074 1.89102 83.2634 1.77502 82.8794 1.67902C82.5034 1.58302 82.1114 1.53502 81.7034 1.53502C81.0234 1.53502 80.4394 1.67502 79.9514 1.95502C79.4634 2.23502 79.0914 2.63502 78.8354 3.15502C78.5794 3.66702 78.4514 4.27902 78.4514 4.99102C78.4514 5.67102 78.5594 6.27502 78.7754 6.80302C78.9994 7.32302 79.3474 7.73102 79.8194 8.02702C80.2914 8.31502 80.9114 8.45902 81.6794 8.45902C81.9354 8.45902 82.1594 8.45102 82.3514 8.43502C82.5514 8.41102 82.7314 8.38302 82.8914 8.35102C83.0594 8.31902 83.2154 8.28702 83.3594 8.25502V5.71102H81.4754V4.75102ZM92.7139 9.27502H87.9259V0.707024H92.7139V1.65502H89.0059V4.33102H92.4979V5.26702H89.0059V8.32702H92.7139V9.27502Z" fill="url(#paint0_linear_11_2)"/>
<path d="M2.93089 0.519524C2.93089 0.644524 2.93089 0.769524 2.93089 0.894524C3.40188 0.915763 3.87015 0.963791 4.31462 1.06884C4.42788 1.09578 4.53925 1.1266 4.64774 1.16217C5.02986 1.28438 5.36851 1.48498 5.56672 1.77085C5.777 2.057 5.84634 2.43629 5.83228 2.83102C5.82335 3.09969 5.76551 3.35177 5.65148 3.56646C5.54948 3.76631 5.39928 3.92617 5.20766 4.05319C5.00392 4.18658 4.74958 4.26943 4.47543 4.312L4.13691 4.36597L4.12906 4.72702C4.12863 4.74702 4.12819 4.76702 4.12776 4.78702L4.12015 5.14014L4.48586 5.20513C4.78456 5.25888 5.06651 5.35242 5.31582 5.49138C5.53812 5.61197 5.70538 5.77506 5.82442 5.98371C5.95035 6.20247 6.0005 6.51164 5.99517 6.83902C5.9904 7.24078 5.89818 7.61005 5.7007 7.90351C5.51104 8.18348 5.22809 8.39634 4.88289 8.54168C4.56415 8.67333 4.19647 8.74189 3.81569 8.7654C3.70979 8.77196 3.60283 8.77509 3.49489 8.77521C2.49089 8.77628 1.48689 8.78192 0.482893 8.79213L0.965793 9.27502C0.936754 6.41902 0.870735 3.56302 0.767736 0.707024L0.482893 0.991866C0.819564 0.979724 1.15623 0.967069 1.49291 0.953899C1.97223 0.935149 2.45156 0.915357 2.93089 0.894524C2.93089 0.769524 2.93089 0.644524 2.93089 0.519524C2.45156 0.498691 1.97223 0.478899 1.49291 0.460149C1.15623 0.446979 0.819564 0.434324 0.482893 0.422182L0.188162 0.432811L0.198051 0.707024C0.0950515 3.56302 0.0290325 6.41902 -5.54323e-06 9.27502L0.00495368 9.76278L0.482893 9.75792C1.48689 9.76813 2.49089 9.77377 3.49489 9.77484C3.62181 9.77496 3.74926 9.77143 3.87752 9.76349C4.33816 9.73453 4.81325 9.6506 5.27086 9.45808C5.75196 9.25368 6.21655 8.90856 6.51836 8.44267C6.83927 7.94881 6.95454 7.36726 6.94661 6.83902C6.9401 6.41453 6.87785 5.94561 6.61337 5.51034C6.40451 5.16574 6.08081 4.8766 5.72555 4.70437C5.37427 4.52579 4.9924 4.4198 4.61593 4.36892L4.97403 4.78702C4.97359 4.76702 4.97316 4.74702 4.97273 4.72702L4.62635 5.14205C4.9813 5.07042 5.34757 4.94023 5.66802 4.70634C5.94738 4.50174 6.19037 4.21744 6.33244 3.89112C6.48799 3.55275 6.54345 3.18018 6.53351 2.83102C6.52159 2.34736 6.40386 1.80695 6.05205 1.39134C5.72051 0.983451 5.24109 0.767801 4.78897 0.659574C4.66306 0.628743 4.53596 0.604051 4.409 0.584192C3.91141 0.507405 3.41834 0.499395 2.93089 0.519524ZM2.93089 0.894524V0.519524V0.894524ZM3.14689 3.85502C3.14689 4.18836 3.14689 4.52169 3.14689 4.85502C3.34854 4.85493 3.55358 4.8473 3.76378 4.8249C4.13988 4.77445 4.55104 4.73057 4.98337 4.38744C5.43201 4.0025 5.57373 3.4079 5.56689 2.95102C5.58996 2.47922 5.34656 1.79616 4.81863 1.51338L4.83066 1.52077C4.16083 1.1355 3.55917 1.14638 2.97889 1.13102C2.50689 1.13102 2.03489 1.13102 1.56289 1.13102H1.06289V1.63102C1.06289 2.53902 1.06289 3.44702 1.06289 4.35502V4.85502H1.56289C1.90272 4.85502 2.24255 4.85502 2.58238 4.85502C2.77055 4.85502 2.95872 4.85502 3.14689 4.85502C3.14689 4.52169 3.14689 4.18836 3.14689 3.85502C2.95872 3.85502 2.77055 3.85502 2.58238 3.85502C2.24255 3.85502 1.90272 3.85502 1.56289 3.85502L2.06289 4.35502C2.06289 3.44702 2.06289 2.53902 2.06289 1.63102L1.56289 2.13102C2.03489 2.13102 2.50689 2.13102 2.97889 2.13102C3.47724 2.1297 4.01641 2.18857 4.29512 2.36528L4.30715 2.37267C4.48776 2.48171 4.5629 2.64219 4.56689 2.95102C4.5673 3.26461 4.48733 3.49513 4.32808 3.6321C4.23619 3.71812 3.94689 3.80311 3.65723 3.83059C3.49381 3.84808 3.32155 3.855 3.14689 3.85502ZM3.14689 4.85502V3.85502V4.85502ZM2.06289 5.25502C1.72956 5.25502 1.39623 5.25502 1.06289 5.25502C1.06289 5.46167 1.06289 5.66832 1.06289 5.87497C1.06289 6.70432 1.06289 7.53367 1.06289 8.36302V8.86302H1.56289C2.13889 8.86302 2.71489 8.86302 3.29089 8.86302C3.8893 8.84212 4.58129 8.85622 5.22845 8.27258C5.64262 7.87417 5.82867 7.26536 5.81889 6.75502C5.82047 6.41378 5.7437 6.03185 5.54229 5.70354L5.54902 5.71495C5.32822 5.32692 4.95869 5.10406 4.63438 4.98035L4.64892 4.98621C4.13445 4.77956 3.66308 4.76016 3.20689 4.75502C2.86554 4.75502 2.52419 4.75502 2.18284 4.75502C1.97619 4.75502 1.76954 4.75502 1.56289 4.75502C1.56289 5.08836 1.56289 5.42169 1.56289 5.75502C1.76954 5.75502 1.97619 5.75502 2.18284 5.75502C2.52419 5.75502 2.86554 5.75502 3.20689 5.75502C3.59434 5.75488 3.98736 5.79306 4.26087 5.90784L4.2754 5.9137C4.47953 5.99139 4.61817 6.0978 4.68077 6.21109L4.6875 6.22251C4.77563 6.36692 4.81904 6.54547 4.81889 6.75502C4.81902 7.09449 4.72494 7.36343 4.52134 7.56547C4.32935 7.77155 3.79425 7.8684 3.29089 7.86302C2.71489 7.86302 2.13889 7.86302 1.56289 7.86302L2.06289 8.36302C2.06289 7.53367 2.06289 6.70432 2.06289 5.87497C2.06289 5.66832 2.06289 5.46167 2.06289 5.25502ZM1.06289 5.25502H2.06289L1.56289 5.75502V4.75502H1.06289V5.25502ZM12.4396 9.46252C12.4396 9.33752 12.4396 9.21252 12.4396 9.08752C12.0796 9.07251 11.7196 9.05804 11.3596 9.04411L11.5905 9.27502C11.5959 9.13542 11.6012 8.99582 11.6065 8.85622C11.6965 6.45582 11.7626 4.05542 11.8046 1.65502L11.8122 1.21795L11.3596 1.21003C10.4676 1.19442 9.57558 1.18214 8.68358 1.17317L9.16543 1.65502C9.16861 1.33902 9.17137 1.02302 9.17371 0.707024L8.68358 1.19715C9.57158 1.20373 10.4596 1.20702 11.3476 1.20702C12.5996 1.20702 13.8516 1.20048 15.1036 1.1874L14.6232 0.707024C14.6265 1.02302 14.6302 1.33902 14.6344 1.65502L15.1036 1.18581C14.2156 1.19743 13.3276 1.21234 12.4396 1.23054L12.024 1.22202L12.0151 1.65502C12.0569 3.69542 12.1161 5.73582 12.1927 7.77622C12.2115 8.27582 12.2312 8.77542 12.2521 9.27502C12.3771 9.27502 12.5021 9.27502 12.6271 9.27502C12.6479 8.77542 12.6677 8.27582 12.6865 7.77622C12.763 5.73582 12.8222 3.69542 12.8641 1.65502L12.4396 2.0795C13.3276 2.09771 14.2156 2.11262 15.1036 2.12424L15.5789 2.11802L15.5728 1.65502C15.5769 1.33902 15.5807 1.02302 15.584 0.707024L15.5789 0.221682L15.1036 0.226649C13.8516 0.213566 12.5996 0.207024 11.3476 0.207024C10.4596 0.207024 9.57158 0.210315 8.68358 0.216897L8.18985 0.220556L8.19345 0.707024C8.1958 1.02302 8.19855 1.33902 8.20173 1.65502L8.20662 2.14167L8.68358 2.13687C9.57558 2.12791 10.4676 2.11563 11.3596 2.10002L10.9146 1.65502C10.9566 4.05542 11.0226 6.45582 11.1127 8.85622C11.1179 8.99582 11.1233 9.13542 11.1287 9.27502L11.1379 9.51451L11.3596 9.50594C11.7196 9.49201 12.0796 9.47754 12.4396 9.46252ZM12.4396 9.08752V9.46252L12.6346 9.45439L12.6271 9.27502H12.2521L12.4396 9.08752ZM27.1807 9.46252C27.1807 9.33752 27.1807 9.21252 27.1807 9.08752C26.4955 9.06669 25.8103 9.0469 25.1251 9.02815C24.2143 9.00323 23.3035 8.98014 22.3927 8.9589L22.7089 9.27502C22.7755 6.41902 22.824 3.56302 22.8544 0.707024L22.3927 1.16868C23.9887 1.18568 25.5847 1.19703 27.1807 1.20272L26.685 0.707024C26.6839 1.02302 26.683 1.33902 26.6823 1.65502L27.1807 1.15661C26.6927 1.15555 26.2047 1.15502 25.7167 1.15502C24.9687 1.15502 24.2207 1.15627 23.4727 1.15875L22.9781 1.15711L22.9765 1.65502C22.9794 2.54702 22.9841 3.43902 22.9906 4.33102L22.9872 4.80959L23.4727 4.81312C24.6367 4.80465 25.8007 4.79317 26.9647 4.77869L26.5171 4.33102C26.521 4.64302 26.525 4.95502 26.5294 5.26702L26.9647 4.83165C25.8007 4.84774 24.6367 4.86685 23.4727 4.88895L23.102 4.88191L23.0947 5.26702C23.114 6.28702 23.1357 7.30702 23.1597 8.32702L23.1525 8.63253L23.4727 8.64006C24.3395 8.61967 25.2063 8.59762 26.0731 8.5739C26.4423 8.5638 26.8115 8.55339 27.1807 8.54268L26.9651 8.32702C26.9742 8.64302 26.9836 8.95902 26.9932 9.27502C27.1182 9.27502 27.2432 9.27502 27.3682 9.27502C27.3778 8.95902 27.3872 8.64302 27.3964 8.32702L27.39 8.1053L27.1807 8.11137C26.8115 8.10066 26.4423 8.09025 26.0731 8.08015C25.2063 8.05643 24.3395 8.03438 23.4727 8.01399L23.7858 8.32702C23.8098 7.30702 23.8314 6.28702 23.8508 5.26702L23.4727 5.6451C24.6367 5.6672 25.8007 5.6863 26.9647 5.7024L27.406 5.6963L27.4001 5.26702C27.4044 4.95502 27.4085 4.64302 27.4124 4.33102L27.4068 3.87786L26.9647 3.88336C25.8007 3.86887 24.6367 3.8574 23.4727 3.84893L23.9548 4.33102C23.9613 3.43902 23.9661 2.54702 23.969 1.65502L23.4727 2.1513C24.2207 2.15378 24.9687 2.15502 25.7167 2.15502C26.2047 2.15502 26.6927 2.1545 27.1807 2.15344L27.6802 2.15236L27.6792 1.65502C27.6785 1.33902 27.6776 1.02302 27.6764 0.707024L27.6747 0.209564L27.1807 0.211327C25.5847 0.217021 23.9887 0.228366 22.3927 0.245363L21.9262 0.250331L21.9311 0.707024C21.9615 3.56302 22.01 6.41902 22.0766 9.27502L22.0842 9.59834L22.3927 9.59115C23.3035 9.56991 24.2143 9.54682 25.1251 9.5219C25.8103 9.50315 26.4955 9.48336 27.1807 9.46252ZM27.1807 9.08752V9.46252L27.3738 9.45666L27.3682 9.27502H26.9932L27.1807 9.08752ZM36.3207 9.46252C36.3207 9.33752 36.3207 9.21252 36.3207 9.08752C35.9127 9.07531 35.5047 9.06345 35.0967 9.05194L35.2872 9.1589C35.1444 8.90907 35.0014 8.65934 34.8583 8.4097C34.2788 7.39896 33.6969 6.38975 33.1124 5.38205L32.8436 4.92065L32.5462 5.38006C31.751 6.60321 30.9597 7.82877 30.1723 9.05675L30.5247 8.86047C30.1447 8.85452 29.7647 8.84888 29.3847 8.84355L29.7486 9.50686C30.7175 8.03216 31.6807 6.55385 32.6383 5.07194L32.806 4.81228L32.636 4.54663C31.831 3.28882 31.0219 2.03363 30.2089 0.781046C30.1339 0.665627 30.059 0.55023 29.984 0.434855L29.5647 1.2069C29.9647 1.20666 30.3647 1.20608 30.7647 1.20516L30.3423 0.971034C31.0449 2.08941 31.7507 3.2058 32.4596 4.3202L32.857 4.96644L33.2691 4.32124C33.9642 3.19561 34.656 2.06797 35.3447 0.938331L34.9767 1.14167C35.3567 1.13647 35.7367 1.13095 36.1167 1.12513L35.7662 0.479163C34.903 1.85272 34.0446 3.22935 33.1909 4.60908L33.0767 4.77649L33.1892 4.96232C33.7881 5.85851 34.389 6.75337 34.992 7.64688C35.3813 8.22371 35.7715 8.79998 36.1625 9.37569C36.268 9.30858 36.3734 9.24147 36.4789 9.17436C36.123 8.57628 35.7662 7.97876 35.4086 7.3818C34.8545 6.4571 34.2984 5.53374 33.7402 4.61173L33.7385 4.96497C34.6528 3.62469 35.5624 2.28133 36.4673 0.934885L36.8816 0.279092L36.1167 0.288921C35.7367 0.283095 35.3567 0.27758 34.9767 0.272376L34.7306 0.275746L34.6087 0.475717C33.8894 1.58607 33.1732 2.69844 32.4603 3.81281L33.2698 3.81384C32.5788 2.68824 31.8845 1.56463 31.1871 0.443014L31.0396 0.208254L30.7647 0.20889C30.3647 0.207964 29.9647 0.207383 29.5647 0.207146L28.644 0.207603L29.1454 0.979193C29.2203 1.09466 29.2952 1.2101 29.3701 1.32552C30.1832 2.5781 31.0003 3.82807 31.8214 5.07542L31.8192 4.5501C30.8807 6.0442 29.9479 7.54189 29.0208 9.04319L28.6034 9.71575L29.3847 9.70649C29.7647 9.70117 30.1447 9.69553 30.5247 9.68957L30.762 9.68586L30.8771 9.4933C31.6257 8.24128 32.3704 6.98684 33.1112 5.72999L32.545 5.728C33.1731 6.70909 33.8036 7.68867 34.4367 8.66672C34.5931 8.90829 34.7496 9.14977 34.9062 9.39115L34.9778 9.50146L35.0967 9.49811C35.5047 9.4866 35.9127 9.47474 36.3207 9.46252ZM36.3207 9.08752V9.46252L36.6657 9.45219L36.4789 9.17436L36.1625 9.37569L36.3207 9.08752ZM42.4096 1.72252C42.4096 1.59752 42.4096 1.47252 42.4096 1.34752C41.9674 1.33175 41.5091 1.39134 41.0812 1.5626C40.9282 1.62015 40.7752 1.69418 40.6303 1.78299C40.4076 1.91907 40.205 2.09048 40.0315 2.28549C39.7217 2.62296 39.5024 3.03546 39.3572 3.45898C39.1833 3.95664 39.1123 4.47839 39.0998 4.99102C39.0846 5.64622 39.1555 6.3274 39.4096 6.97654C39.6284 7.52306 40.0105 8.04101 40.5246 8.38028C41.0986 8.75922 41.7731 8.88872 42.3976 8.89616C42.7797 8.90136 43.1671 8.87529 43.5523 8.80642C43.9 8.74445 44.2454 8.66461 44.5861 8.566L43.9746 8.11102C43.9714 8.42302 43.9685 8.73502 43.9659 9.04702L44.2798 8.59416C43.987 8.70096 43.6839 8.77818 43.3747 8.82633C43.0152 8.88313 42.6295 8.89916 42.2416 8.89807C41.7173 8.89618 41.2049 8.82386 40.7516 8.64451C40.6002 8.58471 40.4557 8.5132 40.3198 8.42969C39.8186 8.12465 39.4351 7.66948 39.1877 7.11838C38.9026 6.473 38.7874 5.73152 38.7792 4.97902C38.7728 4.41799 38.8367 3.86317 38.9984 3.34382C39.147 2.88593 39.3734 2.45628 39.6815 2.09176C39.9813 1.74248 40.3672 1.46632 40.8062 1.27691C41.3 1.05436 41.855 0.955212 42.4216 0.940724C42.8257 0.930096 43.2298 0.958562 43.626 1.03214C43.9845 1.09869 44.3337 1.19915 44.6571 1.34793L44.526 0.968066C44.3911 1.27636 44.2565 1.5848 44.1222 1.8934L44.4595 1.7699C44.3674 1.73134 44.2745 1.69549 44.1812 1.66198C43.9656 1.58456 43.7477 1.51947 43.5288 1.46313C43.1595 1.36501 42.7803 1.33467 42.4096 1.34752C42.4096 1.47252 42.4096 1.59752 42.4096 1.72252C42.7514 1.73532 43.0881 1.7879 43.4009 1.89448C43.606 1.9623 43.806 2.03698 43.9999 2.12122C44.0837 2.15767 44.1665 2.19592 44.2476 2.23615L44.4877 2.33618L44.585 2.11265C44.7387 1.81324 44.8921 1.51369 45.0452 1.21398L45.1613 0.948667L44.914 0.834119C44.5472 0.637995 44.156 0.501998 43.7611 0.405911C43.3223 0.299166 42.8715 0.243764 42.4216 0.233324C41.7865 0.218404 41.1264 0.298251 40.5041 0.54715C39.9642 0.752317 39.4493 1.08721 39.0449 1.52665C38.6389 1.97315 38.3394 2.50398 38.1427 3.05649C37.9268 3.68599 37.8381 4.33896 37.8319 4.97902C37.824 5.82059 37.9354 6.69545 38.2855 7.51511C38.5903 8.22354 39.1217 8.87193 39.7954 9.28036C39.9835 9.39665 40.1815 9.49456 40.3842 9.57457C40.9925 9.8143 41.6289 9.8936 42.2416 9.89198C42.6641 9.88968 43.0914 9.87043 43.5343 9.79541C43.9024 9.73348 44.2679 9.63485 44.6194 9.49989L44.936 9.37818L44.9332 9.04702C44.9307 8.73502 44.9278 8.42302 44.9246 8.11102L44.9182 7.46793L44.3131 7.65605C44.0067 7.75157 43.6948 7.83122 43.3788 7.89563C43.0607 7.96075 42.7313 7.99269 42.3976 7.99789C41.8805 8.00703 41.3805 7.91633 40.9796 7.67187C40.6091 7.44535 40.3205 7.09605 40.1275 6.67283C39.9032 6.16817 39.8071 5.58419 39.7914 4.99102C39.7791 4.53118 39.8185 4.07364 39.9415 3.64465C40.0457 3.27327 40.207 2.92543 40.4413 2.63525C40.5743 2.46588 40.7273 2.31853 40.9005 2.19627C41.0132 2.11655 41.1344 2.04739 41.262 1.98912C41.6141 1.81993 42.0074 1.73729 42.4096 1.72252ZM42.4096 1.34752V1.72252V1.34752ZM54.3116 9.46252C54.3116 9.33752 54.3116 9.21252 54.3116 9.08752C53.9516 9.07763 53.5916 9.06797 53.2316 9.05855L53.4481 9.27502C53.4585 8.87702 53.4686 8.47902 53.4785 8.08102C53.5016 7.14702 53.5231 6.21302 53.5431 5.27902L53.5496 4.97437L53.2316 4.96758C51.7676 4.93633 50.3036 4.90896 48.8396 4.88547L48.4525 4.87926L48.4461 5.27902C48.4247 6.61102 48.4065 7.94302 48.3916 9.27502L48.8396 8.82702C48.4796 8.82299 48.1196 8.81919 47.7596 8.81562L48.219 9.27502C48.2461 6.54302 48.2596 3.81102 48.2596 1.07902C48.2596 0.955024 48.2596 0.831024 48.2595 0.707024L47.7596 1.20694C48.1196 1.20678 48.4796 1.20638 48.8396 1.20575L48.3409 0.707024C48.343 1.91502 48.3478 3.12302 48.3552 4.33102L48.3522 4.81246L48.8396 4.81545C50.3036 4.80647 51.7676 4.7936 53.2316 4.77685L53.6723 4.78189L53.6774 4.33102C53.6636 3.12302 53.6471 1.91502 53.628 0.707024L53.2316 1.10344C53.5916 1.09775 53.9516 1.09181 54.3116 1.08565L53.933 0.707024C53.9689 2.80502 54.0128 4.90302 54.0647 7.00102C54.0835 7.75902 54.1033 8.51702 54.1241 9.27502C54.2491 9.27502 54.3741 9.27502 54.4991 9.27502C54.5199 8.51702 54.5397 7.75902 54.5585 7.00102C54.6104 4.90302 54.6543 2.80502 54.6902 0.707024L54.6836 0.322027L54.3116 0.3284C53.9516 0.322233 53.5916 0.316302 53.2316 0.310605L52.829 0.316976L52.8352 0.707024C52.8161 1.91502 52.7996 3.12302 52.7858 4.33102L53.2316 3.8852C51.7676 3.86844 50.3036 3.85558 48.8396 3.84659L49.324 4.33102C49.3315 3.12302 49.3362 1.91502 49.3383 0.707024L49.3375 0.207424L48.8396 0.208298C48.4796 0.207666 48.1196 0.207269 47.7596 0.207108L47.2595 0.207332L47.2597 0.707024C47.2596 0.831024 47.2596 0.955024 47.2596 1.07902C47.2596 3.81102 47.2731 6.54302 47.3002 9.27502L47.3048 9.73893L47.7596 9.73443C48.1196 9.73086 48.4796 9.72706 48.8396 9.72303L49.2926 9.71795L49.2876 9.27502C49.2727 7.94302 49.2545 6.61102 49.2332 5.27902L48.8396 5.67257C50.3036 5.64909 51.7676 5.62172 53.2316 5.59047L52.9202 5.27902C52.9401 6.21302 52.9616 7.14702 52.9847 8.08102C52.9946 8.47902 53.0047 8.87702 53.0151 9.27502L53.0209 9.49702L53.2316 9.4915C53.5916 9.48208 53.9516 9.47242 54.3116 9.46252ZM54.3116 9.08752V9.46252L54.5041 9.45723L54.4991 9.27502H54.1241L54.3116 9.08752ZM63.2954 9.34302C63.4119 9.29769 63.5284 9.25236 63.6449 9.20703C63.4786 8.72227 63.3113 8.23789 63.1431 7.75389C62.9997 7.34129 62.8556 6.92897 62.7108 6.51693L62.6477 6.33742L62.4381 6.33047C61.3061 6.29294 60.1741 6.26051 59.0421 6.23317L58.784 6.22693L58.6783 6.48307C58.3169 7.35886 57.9589 8.23593 57.6042 9.11427L58.0221 8.82723C57.6581 8.82118 57.2941 8.81565 56.9301 8.81065L57.3629 9.44342C58.012 7.84082 58.65 6.2339 59.277 4.62268C59.766 3.3659 60.2483 2.1065 60.7239 0.844481L60.2781 1.14935C60.6021 1.14588 60.9261 1.14199 61.2501 1.13768L60.815 0.839724C61.9128 3.56303 63.0425 6.27396 64.2041 8.97251C64.2595 9.10124 64.315 9.22995 64.3705 9.35862L64.5861 9.04377C64.2141 9.0578 63.8421 9.07239 63.4701 9.08752C63.4701 9.21252 63.4701 9.33752 63.4701 9.46252C63.8421 9.47766 64.2141 9.49224 64.5861 9.50628L64.9317 9.49386L64.8018 9.19142C64.7561 9.05893 64.7103 8.92645 64.6644 8.79401C63.7033 6.01774 62.7102 3.25384 61.6852 0.502325L61.5635 0.200202L61.2501 0.204365C60.9261 0.200059 60.6021 0.196171 60.2781 0.192699L59.9459 0.196259L59.8324 0.497567C59.3299 1.74911 58.8341 3.00327 58.3451 4.26005C57.7181 5.87127 57.1022 7.48679 56.4974 9.10663L56.2573 9.7482L56.9301 9.7394C57.2941 9.7344 57.6581 9.72887 58.0221 9.72282L58.3371 9.71758L58.4401 9.43577C58.7654 8.54612 59.0874 7.65519 59.406 6.76297L59.0421 7.01288C60.1741 6.98554 61.3061 6.9531 62.4381 6.91558L62.1655 6.72912C62.3373 7.13067 62.5098 7.53195 62.683 7.93295C62.8862 8.40335 63.0903 8.87337 63.2954 9.34302ZM63.6449 9.20703L63.2954 9.34302L63.3497 9.46742L63.4701 9.46252V9.08752L63.6449 9.20703ZM60.686 3.24659C60.9981 3.12955 61.3102 3.0125 61.6223 2.89546C61.5867 2.799 61.5464 2.67821 61.5085 2.56491C61.4899 2.50928 61.4715 2.45357 61.4532 2.39783C61.4159 2.28392 61.379 2.16978 61.3426 2.05542L61.35 2.08081C61.3114 1.93441 61.274 1.79224 61.2205 1.62891L60.6775 -1.43051e-06L60.2611 1.66576C60.2214 1.82462 60.1786 1.98328 60.1334 2.14166L60.1291 2.15776C60.0947 2.29511 60.0557 2.42906 60.0107 2.55661L60.0025 2.58194C59.9692 2.69485 59.9351 2.80692 59.8998 2.91291L59.906 2.89546C59.582 3.75946 59.258 4.62346 58.934 5.48746L58.6806 6.16302H59.4021C60.3061 6.16302 61.2101 6.16302 62.1141 6.16302H62.8325L62.583 5.48937C62.3263 4.79618 62.0695 4.10299 61.8128 3.40981C61.7495 3.239 61.6863 3.06818 61.623 2.89737C61.3104 3.01314 60.9979 3.12891 60.6853 3.24468C60.7485 3.41549 60.8118 3.58631 60.8751 3.75712C61.1318 4.45031 61.3885 5.14349 61.6453 5.83668L62.1141 5.16302C61.2101 5.16302 60.3061 5.16302 59.4021 5.16302L59.8703 5.83859C60.1943 4.97459 60.5183 4.11059 60.8423 3.24659L60.8485 3.22914C60.8899 3.10463 60.9264 2.98424 60.9618 2.86411L60.9536 2.88943C61.0114 2.72566 61.0586 2.56262 61.0992 2.40029L61.0949 2.41639C61.143 2.24821 61.1886 2.0789 61.2312 1.90829L60.2718 1.94514C60.3092 2.05852 60.3469 2.19784 60.3823 2.33323L60.3897 2.35863C60.4269 2.47573 60.4647 2.59271 60.5031 2.7096C60.5218 2.7668 60.5408 2.82399 60.5598 2.88114C60.5999 3.00057 60.6367 3.11288 60.686 3.24659ZM61.6223 2.89546L60.686 3.24659L61.623 2.89737L61.6223 2.89546ZM73.9902 9.46252C73.9902 9.33752 73.9902 9.21252 73.9902 9.08752C73.5702 9.07759 73.1502 9.0679 72.7302 9.05844L72.9123 9.15773C72.6714 8.76458 72.4302 8.37158 72.1888 7.97873C70.9527 5.96706 69.7103 3.95943 68.4616 1.95586L68.3564 1.78701L68.1462 1.78386C68.1302 1.78363 68.1142 1.78339 68.0982 1.78315L67.7066 1.77731L67.7229 2.17987C67.7293 2.33824 67.7347 2.49721 67.7397 2.65641L67.7408 2.67369C67.7547 2.85706 67.7628 3.04304 67.7674 3.23006C67.7728 3.43832 67.7779 3.64605 67.7828 3.85382C67.7877 4.0649 67.7888 4.27602 67.786 4.48702C67.7656 6.08302 67.7485 7.67902 67.7349 9.27502L68.1942 8.81573C67.8622 8.81289 67.5302 8.81021 67.1982 8.80767L67.6656 9.27502C67.6873 6.42756 67.6982 3.58011 67.6982 0.732646C67.6982 0.724105 67.6982 0.715565 67.6982 0.707024L67.1982 1.20702C67.6142 1.20701 68.0302 1.20677 68.4462 1.2063L68.0266 0.977548C69.5533 3.33981 71.0889 5.69632 72.6334 8.04708L72.7647 8.25463L73.0182 8.25683C73.0342 8.25669 73.0502 8.25655 73.0662 8.25641L73.5593 8.26071L73.522 7.76104C73.511 7.64108 73.503 7.51066 73.4956 7.38144C73.4852 7.1919 73.4755 7.00094 73.4663 6.80979C73.4561 6.59072 73.446 6.37099 73.4359 6.15125C73.4265 5.94758 73.4199 5.74452 73.4176 5.54302C73.4003 3.93102 73.3794 2.31902 73.3551 0.707024L72.9822 1.07995C73.3182 1.07488 73.6542 1.06967 73.9902 1.0643L73.6329 0.707024C73.6645 2.68204 73.7013 4.65706 73.7433 6.63208C73.7621 7.51306 73.7819 8.39404 73.8027 9.27502C73.9277 9.27502 74.0527 9.27502 74.1777 9.27502C74.1985 8.39404 74.2183 7.51306 74.2371 6.63208C74.2791 4.65706 74.3159 2.68204 74.3475 0.707024L74.3417 0.344134L73.9902 0.349751C73.6542 0.344381 73.3182 0.339163 72.9822 0.334096L72.6037 0.339803L72.6093 0.707024C72.585 2.31902 72.5642 3.93102 72.5468 5.54302C72.5446 5.75759 72.5471 5.9706 72.5526 6.1828C72.5582 6.40307 72.564 6.62334 72.5701 6.84362C72.5757 7.0372 72.5818 7.23025 72.5888 7.42363C72.5942 7.55968 72.5999 7.69336 72.6104 7.83701L73.0662 7.34164C73.0502 7.3415 73.0342 7.34136 73.0182 7.34122L73.403 7.55097C71.8995 5.17373 70.3871 2.80224 68.8658 0.4365L68.7178 0.20744L68.4462 0.207749C68.0302 0.207275 67.6142 0.207034 67.1982 0.207024L66.6982 0.207036L66.6982 0.707024C66.6982 0.715565 66.6982 0.724105 66.6982 0.732646C66.6982 3.58011 66.7091 6.42756 66.7309 9.27502L66.7345 9.74592L67.1982 9.74238C67.5302 9.73984 67.8622 9.73715 68.1942 9.73432L68.6574 9.73037L68.6535 9.27502C68.6399 7.67902 68.6228 6.08302 68.6024 4.48702C68.5996 4.26593 68.5927 4.04495 68.5816 3.82423C68.5711 3.61596 68.5603 3.40769 68.549 3.19939C68.5387 3.00247 68.5245 2.80418 68.5036 2.60435L68.5048 2.62164C68.4951 2.46072 68.4849 2.29968 68.4735 2.13817L68.0982 2.5349C68.1142 2.53466 68.1302 2.53442 68.1462 2.53418L67.8308 2.36219C69.1388 4.32755 70.4531 6.28886 71.7737 8.24612C72.0316 8.62834 72.2898 9.0104 72.5481 9.39232L72.617 9.49416L72.7302 9.49161C73.1502 9.48215 73.5702 9.47246 73.9902 9.46252ZM73.9902 9.08752V9.46252L74.182 9.45799L74.1777 9.27502H73.8027L73.9902 9.08752ZM81.4754 4.56352C81.4754 4.68852 81.4754 4.81352 81.4754 4.93852C82.2746 4.95936 83.0738 4.97915 83.873 4.9979C84.0618 5.00233 84.2506 5.0067 84.4394 5.01101L84.1794 4.75102C84.1474 6.15102 84.1186 7.55102 84.093 8.95102L84.3316 8.62189C83.8884 8.75784 83.4361 8.85818 82.9794 8.91964C82.4722 8.98749 81.9507 9.0056 81.4274 8.99786C80.6974 8.9872 79.9801 8.84546 79.3984 8.49568C78.8727 8.17734 78.4623 7.70752 78.1983 7.14455C77.9017 6.49545 77.791 5.74719 77.7974 4.99102C77.8024 4.24355 77.9442 3.51258 78.2823 2.89423C78.5856 2.33117 79.04 1.87864 79.6025 1.57479C80.1937 1.24796 80.891 1.1055 81.6063 1.08892C81.6584 1.08765 81.7107 1.08702 81.7634 1.08701C82.1893 1.0869 82.6109 1.12359 83.018 1.20734C83.4018 1.28476 83.7726 1.39522 84.1217 1.54567L83.8649 0.892925C83.7299 1.20534 83.595 1.51783 83.4603 1.83039L84.1124 1.57783C83.7458 1.41581 83.3718 1.29844 82.9975 1.20664C82.5738 1.10042 82.1357 1.05237 81.7034 1.0552C81.0406 1.05798 80.3347 1.19008 79.7195 1.55088C79.1605 1.87073 78.7005 2.38469 78.4315 2.95621C78.1139 3.60682 78.0152 4.31744 78.0229 4.99102C78.0305 5.64823 78.1341 6.32518 78.4019 6.9558C78.6512 7.52842 79.0884 8.03226 79.6184 8.34758C80.2772 8.73236 81.0039 8.81299 81.6794 8.80393C81.91 8.79964 82.1419 8.78998 82.379 8.76618L82.391 8.76496C82.5778 8.73896 82.7653 8.70788 82.9545 8.66648C83.11 8.63366 83.2685 8.59829 83.4271 8.55976L83.6664 8.51164L83.6716 8.25502C83.6544 7.40702 83.6361 6.55902 83.6166 5.71102L83.6224 5.45983L83.3594 5.45378C83.2106 5.4572 83.0618 5.46066 82.913 5.46415C82.4338 5.47539 81.9546 5.48701 81.4754 5.499L81.6874 5.71102C81.6794 5.39102 81.6712 5.07102 81.6629 4.75102C81.5379 4.75102 81.4129 4.75102 81.2879 4.75102C81.2795 5.07102 81.2714 5.39102 81.2634 5.71102L81.2688 5.92822L81.4754 5.92305C81.9546 5.93504 82.4338 5.94666 82.913 5.9579C83.0618 5.96139 83.2106 5.96484 83.3594 5.96826L83.1021 5.71102C83.0827 6.55902 83.0644 7.40702 83.0472 8.25502L83.2917 7.95029C83.1394 7.98082 82.9857 8.00877 82.8312 8.035C82.6601 8.06548 82.4868 8.08755 82.3118 8.10509L82.3238 8.10387C82.114 8.1169 81.8972 8.11814 81.6794 8.11412C81.0739 8.10261 80.4722 7.99507 80.0165 7.70403C79.6222 7.44858 79.3241 7.08159 79.146 6.64339C78.9477 6.13579 78.8719 5.56682 78.8799 4.99102C78.8872 4.40639 78.99 3.83569 79.238 3.35633C79.4539 2.92719 79.7751 2.58586 80.1833 2.35917C80.6249 2.11028 81.155 2.00998 81.7034 2.01485C82.0628 2.01736 82.4175 2.06135 82.7589 2.15081C83.0921 2.23617 83.413 2.34161 83.7104 2.47622L84.1667 2.67805L84.3625 2.22366C84.4998 1.91222 84.6369 1.60071 84.7739 1.28912L84.9714 0.832255L84.5171 0.636377C84.0965 0.452121 83.6591 0.320691 83.2189 0.230339C82.7368 0.1295 82.2471 0.0871367 81.7634 0.0870395C81.7028 0.0870295 81.6424 0.0877433 81.5819 0.0892138C80.7553 0.108531 79.8898 0.275599 79.1224 0.704257C78.4092 1.0907 77.7965 1.71043 77.4205 2.43182C76.993 3.23397 76.8422 4.13503 76.8493 4.99102C76.8554 5.84266 76.993 6.72761 77.3817 7.53555C77.7251 8.23698 78.2863 8.85169 78.9648 9.23624C79.7383 9.67303 80.6087 9.80388 81.4274 9.79219C81.9793 9.78371 82.535 9.74777 83.0914 9.6544C83.5873 9.57069 84.0748 9.44427 84.5472 9.28016L84.7902 9.19561L84.7857 8.95102C84.7601 7.55102 84.7314 6.15102 84.6994 4.75102L84.6933 4.48524L84.4394 4.49104C84.2506 4.49535 84.0618 4.49972 83.873 4.50415C83.0738 4.5229 82.2746 4.54269 81.4754 4.56352ZM81.4754 4.93852V4.56352L81.2831 4.56854L81.2879 4.75102H81.6629L81.4754 4.93852ZM92.7139 9.46252C92.7139 9.33752 92.7139 9.21252 92.7139 9.08752C92.0287 9.06669 91.3435 9.0469 90.6583 9.02815C89.7475 9.00323 88.8367 8.98014 87.9259 8.9589L88.242 9.27502C88.3086 6.41902 88.3571 3.56302 88.3875 0.707024L87.9259 1.16868C89.5219 1.18568 91.1179 1.19703 92.7139 1.20272L92.2182 0.707024C92.217 1.02302 92.2161 1.33902 92.2154 1.65502L92.7139 1.15661C92.2259 1.15555 91.7379 1.15502 91.2499 1.15502C90.5019 1.15502 89.7539 1.15627 89.0059 1.15875L88.5112 1.15711L88.5096 1.65502C88.5126 2.54702 88.5173 3.43902 88.5238 4.33102L88.5203 4.80959L89.0059 4.81312C90.1699 4.80465 91.3339 4.79317 92.4979 4.77869L92.0502 4.33102C92.0541 4.64302 92.0582 4.95502 92.0625 5.26702L92.4979 4.83165C91.3339 4.84774 90.1699 4.86685 89.0059 4.88895L88.6351 4.88191L88.6278 5.26702C88.6472 6.28702 88.6688 7.30702 88.6928 8.32702L88.6856 8.63253L89.0059 8.64006C89.8727 8.61967 90.7395 8.59762 91.6063 8.5739C91.9755 8.5638 92.3447 8.55339 92.7139 8.54268L92.4982 8.32702C92.5074 8.64302 92.5168 8.95902 92.5264 9.27502C92.6514 9.27502 92.7764 9.27502 92.9014 9.27502C92.911 8.95902 92.9204 8.64302 92.9295 8.32702L92.9231 8.1053L92.7139 8.11137C92.3447 8.10066 91.9755 8.09025 91.6063 8.08015C90.7395 8.05643 89.8727 8.03438 89.0059 8.01399L89.3189 8.32702C89.3429 7.30702 89.3646 6.28702 89.3839 5.26702L89.0059 5.6451C90.1699 5.6672 91.3339 5.6863 92.4979 5.7024L92.9392 5.6963L92.9332 5.26702C92.9376 4.95502 92.9417 4.64302 92.9455 4.33102L92.9399 3.87786L92.4979 3.88336C91.3339 3.86887 90.1699 3.8574 89.0059 3.84893L89.488 4.33102C89.4945 3.43902 89.4992 2.54702 89.5021 1.65502L89.0059 2.1513C89.7539 2.15378 90.5019 2.15502 91.2499 2.15502C91.7379 2.15502 92.2259 2.1545 92.7139 2.15344L93.2134 2.15236L93.2123 1.65502C93.2116 1.33902 93.2107 1.02302 93.2096 0.707024L93.2078 0.209564L92.7139 0.211327C91.1179 0.217021 89.5219 0.228366 87.9259 0.245363L87.4593 0.250331L87.4642 0.707024C87.4946 3.56302 87.5431 6.41902 87.6097 9.27502L87.6173 9.59834L87.9259 9.59115C88.8367 9.56991 89.7475 9.54682 90.6583 9.5219C91.3435 9.50315 92.0287 9.48336 92.7139 9.46252ZM92.7139 9.08752V9.46252L92.9069 9.45666L92.9014 9.27502H92.5264L92.7139 9.08752Z" fill="url(#paint1_linear_11_2)" mask="url(#path-1-outside-1_11_2)"/>
<defs>
<linearGradient id="paint0_linear_11_2" x1="23.4285" y1="-4.52247" x2="23.4285" y2="9.89764" gradientUnits="userSpaceOnUse">
<stop offset="0.00999999" stop-color="#FFF0DA"/>
<stop offset="0.04" stop-color="#94641E"/>
<stop offset="0.83" stop-color="#EAC885"/>
<stop offset="0.94" stop-color="#FFF2DB"/>
<stop offset="0.98" stop-color="#FBF5D1"/>
<stop offset="1" stop-color="#BD9A4B"/>
</linearGradient>
<linearGradient id="paint1_linear_11_2" x1="68.3189" y1="10.275" x2="68.3189" y2="-4.72498" gradientUnits="userSpaceOnUse">
<stop stop-color="#FCF6D1"/>
<stop offset="0.1" stop-color="#BD9457"/>
<stop offset="0.25" stop-color="#E3CA89"/>
<stop offset="0.7" stop-color="#FEE8C8"/>
<stop offset="0.85" stop-color="#4D3A1A"/>
<stop offset="1" stop-color="#FCF0D1"/>
</linearGradient>
</defs>
</svg>
